<svg id="Layer_1" data-name="Layer 1" xmlns="http://www.w3.org/2000/svg" viewBox="0 0 165.83 169.87">
  <defs>
    <style>
      .cls-1 {
        fill: #057fbd;
      }

      .cls-2 {
        fill: #434143;
      }

      .cls-3 {
        fill: #fff;
      }
    </style>
  </defs>
  <path class="cls-1" d="M165.83,84.91a83,83,0,1,1-34-66.87A82.93,82.93,0,0,1,165.83,84.91Z"/>
  <g>
    <path class="cls-2" d="M132.59,6.81l-49,75a.82.82,0,0,1-1.37,0l-49-75a.76.76,0,0,1,0-.83.76.76,0,0,1,.72-.43h98a.81.81,0,0,1,.68,1.26Z"/>
    <circle class="cls-3" cx="97.02" cy="29.55" r="7.84"/>
    <circle class="cls-3" cx="62.47" cy="21.72" r="7.84"/>
    <circle class="cls-3" cx="82.92" cy="53.77" r="7.84"/>
  </g>
  <g>
    <path class="cls-2" d="M132.64,163.93a.71.71,0,0,1-.66.39H33.84a.74.74,0,0,1-.62-1.15l49.07-75.1a.71.71,0,0,1,.62-.34.74.74,0,0,1,.63.33l49.07,75.11A.72.72,0,0,1,132.64,163.93Z"/>
    <path class="cls-3" d="M137.25,160.13,88.18,85l0,0,.1-.14,49-75A6.36,6.36,0,0,0,131.91,0h-98a6.36,6.36,0,0,0-5.34,9.85l49,75,.1.14,0,0-49.07,75.1a6.29,6.29,0,0,0,5.27,9.74H132a6.29,6.29,0,0,0,5.27-9.74ZM33.23,6.81a.76.76,0,0,1,0-.83.76.76,0,0,1,.72-.43h98a.81.81,0,0,1,.68,1.26l-49,75a.82.82,0,0,1-1.37,0Zm99.41,157.12a.71.71,0,0,1-.66.39H33.84a.74.74,0,0,1-.62-1.15l49.07-75.1a.71.71,0,0,1,.62-.34.74.74,0,0,1,.63.33l49.07,75.11A.72.72,0,0,1,132.64,163.93Z"/>
  </g>
  <g>
    <path class="cls-3" d="M58.24,145.25v13.51h8.51V145.25Z"/>
    <path class="cls-3" d="M71.89,126v32.74h8.45V126Z"/>
    <path class="cls-3" d="M85.49,116.35v42.41h8.44V116.35Z"/>
    <path class="cls-3" d="M99.08,138.71v20h8.51v-20Z"/>
  </g>
</svg>
