<svg id="Layer_1" data-name="Layer 1" xmlns="http://www.w3.org/2000/svg" width="124" height="127" viewBox="0 0 124 127">
  <defs>
    <style>
      .cls-1 {
        fill: #fafbfb;
      }

      .cls-2 {
        fill: #c95e30;
      }

      .cls-3 {
        fill: #4d4c4c;
      }
    </style>
  </defs>
  <g>
    <path class="cls-1" d="M123.93,63.5c0,20.15-.05,40.29.07,60.44,0,2.5-.57,3.07-3.06,3.06Q62,126.87,3.06,127C.56,127,0,126.44,0,123.94Q.14,63.51,0,3.06C0,.56.56,0,3.06,0Q62,.14,120.94,0c2.49,0,3.07.56,3.06,3.06C123.88,23.21,123.93,43.35,123.93,63.5ZM29.71,21.07c-.79.6-1.73,1.26-2.61,2-24.32,19.84-24,59.47.47,79.19,1.95,1.56,3,2,4.6-.46Q44,83.33,56.12,65.06a4.2,4.2,0,0,0,0-5.38c-8-12-15.84-24.17-23.76-36.25C31.71,22.49,31.34,21.27,29.71,21.07ZM112.76,62.7c-.61-16.13-6.49-29.52-18.67-40-2.2-1.9-3.31-1.83-4.92.69Q77.48,41.6,65.47,59.64C64.21,61.55,64,63,65.32,65q12,18,23.71,36.28c1.74,2.71,3,2.67,5.35.66C106.34,91.46,112.05,78.16,112.76,62.7Zm-52-2.13C71,44.88,81,29.78,90.84,14.65c1.38-2.11.09-2.55-1.8-2.55q-28.2,0-56.42,0c-2.53,0-3,.94-1.67,2.95,1.54,2.37,3.12,4.72,4.66,7.08Zm-.35,52.11c9,0,18,0,26.94,0,1.27,0,2.9.65,3.75-.59,1-1.42-.65-2.37-1.31-3.39C80.91,95,71.89,81.48,63.18,67.73c-2.18-3.45-3.12-2.64-4.89.11-8.82,13.67-17.76,27.28-26.64,40.91-.62,1-1.8,1.91-1.28,3.06.69,1.53,2.35.83,3.58.84C42.77,112.7,51.58,112.68,60.4,112.68Z"/>
    <path class="cls-2" d="M29.71,21.07c1.63.2,2,1.42,2.61,2.36C40.24,35.51,48.1,47.64,56.08,59.68a4.2,4.2,0,0,1,0,5.38Q44,83.35,32.17,101.78c-1.57,2.46-2.65,2-4.6.46C3.05,82.52,2.78,42.89,27.1,23.05,28,22.33,28.92,21.67,29.71,21.07Z"/>
    <path class="cls-2" d="M112.76,62.7c-.71,15.46-6.42,28.76-18.38,39.23-2.3,2-3.61,2-5.35-.66Q77.33,83,65.32,65c-1.34-2-1.11-3.44.15-5.35q12-18.06,23.7-36.28c1.61-2.52,2.72-2.59,4.92-.69C106.27,33.18,112.15,46.57,112.76,62.7Z"/>
    <path class="cls-3" d="M60.75,60.57,35.61,22.12C34.07,19.76,32.49,17.41,31,15c-1.31-2-.86-2.95,1.67-2.95q28.22.06,56.42,0c1.89,0,3.18.44,1.8,2.55C81,29.78,71,44.88,60.75,60.57ZM63,23.41a2.21,2.21,0,0,0-4.42-.15A2.14,2.14,0,0,0,61,25.74,2.1,2.1,0,0,0,63,23.41ZM57.79,33.63c-.16-1.13-.73-2.19-2-2.29a2.44,2.44,0,0,0-2.62,2.35C53,35.28,54.28,36,55.7,36S57.68,35,57.79,33.63Zm-5.13-8.3a2.11,2.11,0,0,0-2.26-2.08c-1.42.08-2.49.84-2.31,2.49a2.22,2.22,0,0,0,2.26,2.11C51.92,27.88,52.59,26.81,52.66,25.33Zm20.69.09c-.15-1.31-.8-2.18-2.18-2.19A2,2,0,0,0,69,25.35c0,1.47.67,2.62,2.34,2.48C72.68,27.73,73.19,26.65,73.35,25.42ZM66.24,36a2.08,2.08,0,0,0,1.83-2.22c0-1.52-.82-2.56-2.36-2.42a2.1,2.1,0,0,0-1.83,2.45C63.93,35.14,64.63,35.89,66.24,36ZM63,41.84a2.19,2.19,0,0,0-4.37.35A2.19,2.19,0,0,0,63,41.84Z"/>
    <path class="cls-3" d="M60.4,112.68c-8.82,0-17.63,0-26.45,0-1.23,0-2.89.69-3.58-.84-.52-1.15.66-2.11,1.28-3.06,8.88-13.63,17.82-27.24,26.64-40.91,1.77-2.75,2.71-3.56,4.89-.11C71.89,81.48,80.91,95,89.78,108.67c.66,1,2.28,2,1.31,3.39-.85,1.24-2.48.59-3.75.59C78.36,112.7,69.38,112.68,60.4,112.68ZM62.79,96c0-3.33,0-6.65,0-10,0-1.4-.53-2.14-2-2.16s-1.92.87-1.92,2.19q0,10,0,19.94c0,1.33.36,2.2,2,2.16s2-.83,2-2.2C62.78,102.59,62.79,99.27,62.79,96Zm-7,5.18c0-2.58,0-4.74,0-6.89,0-1.31-.34-2.22-1.92-2.28s-1.94.83-1.94,2.15c0,2.16-.4,4.41.09,6.45.61,2.51-2.27,7.18,2,7.17C57.83,107.72,54.6,103,55.75,101.13Zm14.09-1.32h0c0-1.82,0-3.63,0-5.45,0-1.61-.52-2.45-2.27-2.4s-1.74,1.15-1.74,2.35q0,5.94,0,11.88c0,1.11.36,1.9,1.68,1.91s2.29-.3,2.29-1.85Q69.85,103,69.84,99.81Zm-20.79,3.35c-.34-1.72.73-3.78-.76-5.12-.63-.56-2.69-.8-3,.4a15.49,15.49,0,0,0,0,9.07c.38,1.17,2.34.92,3,.31C49.68,106.64,48.77,104.74,49.05,103.16Zm27.82,0c0-1.31.09-2.63,0-3.94-.15-1.68-1.63-1.72-2.59-1.33-2.8,1.14-1.17,3.69-1.28,5.56-.09,1.5-1.24,3.78,1.3,4.54,1,.31,2.44.3,2.58-1.39C77,105.49,76.87,104.34,76.87,103.19Z"/>
    <path class="cls-1" d="M63,23.41a2.1,2.1,0,0,1-2,2.33,2.14,2.14,0,0,1-2.38-2.48,2.21,2.21,0,0,1,4.42.15Z"/>
    <path class="cls-1" d="M57.79,33.63C57.68,35,57.05,36,55.7,36s-2.7-.68-2.54-2.27a2.44,2.44,0,0,1,2.62-2.35C57.06,31.44,57.63,32.5,57.79,33.63Z"/>
    <path class="cls-1" d="M52.66,25.33c-.07,1.48-.74,2.55-2.31,2.52a2.22,2.22,0,0,1-2.26-2.11c-.18-1.65.89-2.41,2.31-2.49A2.11,2.11,0,0,1,52.66,25.33Z"/>
    <path class="cls-1" d="M73.35,25.42c-.16,1.23-.67,2.31-2,2.41-1.67.14-2.33-1-2.34-2.48a2,2,0,0,1,2.19-2.12C72.55,23.24,73.2,24.11,73.35,25.42Z"/>
    <path class="cls-1" d="M66.24,36c-1.61-.11-2.31-.86-2.36-2.19a2.1,2.1,0,0,1,1.83-2.45c1.54-.14,2.34.9,2.36,2.42A2.08,2.08,0,0,1,66.24,36Z"/>
    <path class="cls-1" d="M63,41.84a2.19,2.19,0,0,1-4.37.35A2.19,2.19,0,0,1,63,41.84Z"/>
    <path class="cls-1" d="M62.79,96c0,3.32,0,6.64,0,10,0,1.37-.47,2.17-2,2.2s-2-.83-2-2.16q0-10,0-19.94c0-1.32.32-2.22,1.92-2.19s2,.76,2,2.16C62.78,89.3,62.79,92.62,62.79,96Z"/>
    <path class="cls-1" d="M55.75,101.13c-1.15,1.9,2.08,6.59-1.8,6.6-4.24,0-1.36-4.66-2-7.17-.49-2-.08-4.29-.09-6.45,0-1.32.32-2.22,1.94-2.15s1.92,1,1.92,2.28C55.74,96.39,55.75,98.55,55.75,101.13Z"/>
    <path class="cls-1" d="M69.84,99.81q0,3.21,0,6.44c0,1.55-1,1.86-2.29,1.85s-1.67-.8-1.68-1.91q0-5.94,0-11.88c0-1.2,0-2.31,1.74-2.35s2.32.79,2.27,2.4c-.05,1.82,0,3.63,0,5.45Z"/>
    <path class="cls-1" d="M49,103.16c-.27,1.58.64,3.48-.71,4.66-.69.61-2.65.86-3-.31a15.49,15.49,0,0,1,0-9.07c.34-1.2,2.4-1,3-.4C49.78,99.38,48.71,101.44,49,103.16Z"/>
    <path class="cls-1" d="M76.87,103.19c0,1.15.08,2.3,0,3.44-.14,1.69-1.53,1.7-2.58,1.39-2.54-.76-1.39-3-1.3-4.54.11-1.87-1.52-4.42,1.28-5.56,1-.39,2.44-.35,2.59,1.33C77,100.56,76.87,101.88,76.87,103.19Z"/>
  </g>
</svg>
