<svg id="Layer_1" data-name="Layer 1" xmlns="http://www.w3.org/2000/svg" viewBox="0 0 225.02 225.02"><defs><style>.cls-1{fill:#f15b27;}.cls-2{fill:#434143;}.cls-3{fill:#fff;}</style></defs><path class="cls-1" d="M195.43,112.48a83,83,0,1,1-34-66.86A82.94,82.94,0,0,1,195.43,112.48Z"/><path class="cls-2" d="M162.19,34.38l-49,75a.82.82,0,0,1-1.37,0l-49-75a.82.82,0,0,1,.69-1.26h98a.81.81,0,0,1,.68,1.26Z"/><circle class="cls-3" cx="126.62" cy="57.13" r="7.84"/><circle class="cls-3" cx="92.07" cy="49.29" r="7.84"/><circle class="cls-3" cx="112.51" cy="81.35" r="7.84"/><path class="cls-2" d="M162.24,191.5a.71.71,0,0,1-.66.39H63.44a.74.74,0,0,1-.62-1.15l49.07-75.1a.71.71,0,0,1,.62-.34.74.74,0,0,1,.63.33l49.07,75.11A.72.72,0,0,1,162.24,191.5Z"/><path class="cls-3" d="M166.85,187.7l-49.07-75.1,0,0,.1-.14,49-75a6.36,6.36,0,0,0-5.33-9.85h-98a6.36,6.36,0,0,0-5.34,9.85l49,75,.1.14,0,0L58.17,187.7a6.29,6.29,0,0,0,5.27,9.74h98.14a6.29,6.29,0,0,0,5.27-9.74ZM62.83,34.38a.82.82,0,0,1,.69-1.26h98a.81.81,0,0,1,.68,1.26l-49,75a.82.82,0,0,1-1.37,0ZM162.24,191.5a.71.71,0,0,1-.66.39H63.44a.74.74,0,0,1-.62-1.15l49.07-75.1a.71.71,0,0,1,.62-.34.74.74,0,0,1,.63.33l49.07,75.11A.72.72,0,0,1,162.24,191.5Z"/><path class="cls-3" d="M87.84,172.82v13.51h8.5V172.82Z"/><path class="cls-3" d="M101.49,153.6v32.73h8.45V153.6Z"/><path class="cls-3" d="M115.08,143.93v42.4h8.45v-42.4Z"/><path class="cls-3" d="M128.68,166.28v20.05h8.5V166.28Z"/></svg>