<svg version="1.1" xmlns="http://www.w3.org/2000/svg" xmlns:xlink="http://www.w3.org/1999/xlink" width="432" height="288"><defs><clipPath id="OqvKLMqPxfdE"><path fill="none" stroke="none" d="M 5.5 27.5 L 427.5 27.5 L 427.5 266.5 L 5.5 266.5 L 5.5 27.5"/></clipPath><clipPath id="QKSTgwNeQvFa"><path fill="none" stroke="none" d="M 5.5 27.5 L 427.5 27.5 L 427.5 266.5 L 5.5 266.5 L 5.5 27.5"/></clipPath><clipPath id="gFURkREvRzsT"><path fill="none" stroke="none" d="M 5.5 27.5 L 427.5 27.5 L 427.5 266.5 L 5.5 266.5 L 5.5 27.5"/></clipPath><clipPath id="AuRCeoWByJua"><path fill="none" stroke="none" d="M 5.5 27.5 L 427.5 27.5 L 427.5 266.5 L 5.5 266.5 L 5.5 27.5"/></clipPath><clipPath id="MQKaHJNVbpfL"><path fill="none" stroke="none" d="M 5.5 27.5 L 427.5 27.5 L 427.5 266.5 L 5.5 266.5 L 5.5 27.5"/></clipPath><clipPath id="JtESZenOtZsU"><path fill="none" stroke="none" d="M 5.5 27.5 L 427.5 27.5 L 427.5 266.5 L 5.5 266.5 L 5.5 27.5"/></clipPath><clipPath id="SKzFiQggvLhx"><path fill="none" stroke="none" d="M 5.5 27.5 L 427.5 27.5 L 427.5 266.5 L 5.5 266.5 L 5.5 27.5"/></clipPath><clipPath id="JtOHIezqtViD"><path fill="none" stroke="none" d="M 5.5 27.5 L 427.5 27.5 L 427.5 266.5 L 5.5 266.5 L 5.5 27.5"/></clipPath><clipPath id="nHhlOCEfUVzu"><path fill="none" stroke="none" d="M 5.5 27.5 L 427.5 27.5 L 427.5 266.5 L 5.5 266.5 L 5.5 27.5"/></clipPath><clipPath id="AxZJJkhcsBkA"><path fill="none" stroke="none" d="M 5.5 27.5 L 427.5 27.5 L 427.5 266.5 L 5.5 266.5 L 5.5 27.5"/></clipPath></defs><path fill="rgb(255,255,255)" stroke="none" paint-order="stroke" d="M 0.5 0.5 L 432.5 0.5 L 432.5 288.5 L 0.5 288.5 L 0.5 0.5" fill-opacity="1"/><rect fill="#FFFFFF" stroke="none" x="5" y="27" width="422" height="239" transform="matrix(1, 0, 0, 1, 0.5, 0.5)"/><path fill="rgb(255,255,255)" stroke="none" paint-order="stroke" d="M 5.5 27.5 L 427.5 27.5 L 427.5 266.5 L 5.5 266.5 L 5.5 27.5" fill-opacity="1"/><path fill="none" stroke="rgb(229,229,229)" paint-order="fill" d="M 5.5 27.5 L 427.5 27.5 L 427.5 266.5 L 5.5 266.5 L 5.5 27.5" stroke-opacity="1" stroke-linejoin="bevel" stroke-miterlimit="10" stroke-dasharray=""/><path fill="none" stroke="none"/><path fill="none" stroke="rgb(42,46,236)" paint-order="fill" d="M 24.68181800842285 255.41835021972656 L 25.432575225830078 255.41845703125 L 26.183330535888672 255.4156494140625 L 26.934085845947266 255.41407775878906 L 27.684843063354492 255.41209411621094 L 28.435598373413086 255.41061401367188 L 29.186355590820312 255.40878295898438 L 29.937110900878906 255.4065399169922 L 30.6878662109375 255.4027862548828 L 31.438623428344727 255.39810180664062 L 32.18937873840332 255.3933563232422 L 32.94013595581055 255.38555908203125 L 33.69089126586914 255.37594604492188 L 34.441646575927734 255.3649444580078 L 35.19240188598633 255.35037231445312 L 35.94316101074219 255.33355712890625 L 36.69391632080078 255.312255859375 L 37.444671630859375 255.28793334960938 L 38.19542694091797 255.25820922851562 L 38.94618225097656 255.22422790527344 L 39.69694137573242 255.1856689453125 L 40.447696685791016 255.13917541503906 L 41.19845199584961 255.08641052246094 L 41.9492073059082 255.0260772705078 L 42.6999626159668 254.9580078125 L 43.450721740722656 254.87974548339844 L 44.20147705078125 254.79347229003906 L 44.952232360839844 254.6960906982422 L 45.70298767089844 254.59202575683594 L 46.45374298095703 254.47802734375 L 47.20450210571289 254.3571319580078 L 47.955257415771484 254.22621154785156 L 48.70601272583008 254.0870361328125 L 49.45676803588867 253.94207763671875 L 50.20752716064453 253.78781127929688 L 50.958282470703125 253.6276397705078 L 51.70903778076172 253.46449279785156 L 52.45979309082031 253.29476928710938 L 53.210548400878906 253.12481689453125 L 53.961307525634766 252.9492645263672 L 54.71206283569336 252.77197265625 L 55.46281814575195 252.59568786621094 L 56.21357345581055 252.4196014404297 L 56.96432876586914 252.24717712402344 L 57.715087890625 252.07363891601562 L 58.465843200683594 251.90191650390625 L 59.21659851074219 251.73216247558594 L 59.96735382080078 251.5675506591797 L 60.718109130859375 251.40171813964844 L 61.468868255615234 251.23643493652344 L 62.21962356567383 251.07276916503906 L 62.97037887573242 250.91046142578125 L 63.721134185791016 250.74928283691406 L 64.47188949584961 250.582763671875 L 65.22264862060547 250.41619873046875 L 65.97340393066406 250.24942016601562 L 66.72415924072266 250.08029174804688 L 67.47491455078125 249.90521240234375 L 68.22566986083984 249.72792053222656 L 68.97642517089844 249.54754638671875 L 69.72718048095703 249.35890197753906 L 70.47794342041016 249.16566467285156 L 71.22869873046875 248.96885681152344 L 71.97945404052734 248.76475524902344 L 72.73020935058594 248.5557861328125 L 73.48096466064453 248.33901977539062 L 74.23171997070312 248.11599731445312 L 74.98247528076172 247.88340759277344 L 75.73323059082031 247.64288330078125 L 76.4839859008789 247.39520263671875 L 77.2347412109375 247.14036560058594 L 77.98550415039062 246.87603759765625 L 78.73625946044922 246.6041259765625 L 79.48701477050781 246.31394958496094 L 80.2377700805664 246.01173400878906 L 80.988525390625 245.7045135498047 L 81.7392807006836 245.37901306152344 L 82.49003601074219 245.03280639648438 L 83.24079132080078 244.67140197753906 L 83.99154663085938 244.2891082763672 L 84.74230194091797 243.88809204101562 L 85.4930648803711 243.46575927734375 L 86.24382019042969 243.01979064941406 L 86.99457550048828 242.5465850830078 L 87.74533081054688 242.04859924316406 L 88.49608612060547 241.53082275390625 L 89.24684143066406 240.97848510742188 L 89.99759674072266 240.39907836914062 L 90.74835205078125 239.78758239746094 L 91.49910736083984 239.14820861816406 L 92.24987030029297 238.47605895996094 L 93.00062561035156 237.7742919921875 L 93.75138092041016 237.0335235595703 L 94.50213623046875 236.26336669921875 L 95.25289154052734 235.46412658691406 L 96.00364685058594 234.6432647705078 L 96.75440216064453 233.78921508789062 L 97.50515747070312 232.9031524658203 L 98.25591278076172 231.98095703125 L 99.00666809082031 231.03921508789062 L 99.75743103027344 230.08045959472656 L 100.50818634033203 229.09300231933594 L 101.25894165039062 228.08377075195312 L 102.00969696044922 227.0487518310547 L 102.76045227050781 225.99684143066406 L 103.5112075805664 224.93194580078125 L 104.261962890625 223.84703063964844 L 105.0127182006836 222.74526977539062 L 105.76347351074219 221.6276092529297 L 106.51422882080078 220.5089569091797 L 107.2649917602539 219.37120056152344 L 108.0157470703125 218.2162628173828 L 108.7665023803711 217.0338134765625 L 109.51725769042969 215.8475341796875 L 110.26801300048828 214.6451873779297 L 111.01876831054688 213.4185333251953 L 111.76952362060547 212.16592407226562 L 112.52027893066406 210.9046630859375 L 113.27103424072266 209.60955810546875 L 114.02178955078125 208.29579162597656 L 114.77255249023438 206.95753479003906 L 115.52330780029297 205.5933074951172 L 116.27406311035156 204.19827270507812 L 117.02481842041016 202.7769775390625 L 117.77557373046875 201.3403778076172 L 118.52632904052734 199.85365295410156 L 119.27708435058594 198.36659240722656 L 120.02783966064453 196.85374450683594 L 120.77859497070312 195.3321075439453 L 121.52935791015625 193.79409790039062 L 122.28011322021484 192.22796630859375 L 123.03086853027344 190.65866088867188 L 123.78162384033203 189.08529663085938 L 124.53237915039062 187.50083923339844 L 125.28313446044922 185.9051513671875 L 126.03388977050781 184.30943298339844 L 126.7846450805664 182.727783203125 L 127.535400390625 181.13754272460938 L 128.2861557006836 179.55148315429688 L 129.0369110107422 177.97787475585938 L 129.7876739501953 176.4114532470703 L 130.53842163085938 174.86053466796875 L 131.2891845703125 173.30819702148438 L 132.03993225097656 171.76092529296875 L 132.7906951904297 170.22039794921875 L 133.5414581298828 168.66534423828125 L 134.29220581054688 167.11904907226562 L 135.04296875 165.56900024414062 L 135.79371643066406 163.99533081054688 L 136.5444793701172 162.403564453125 L 137.29522705078125 160.78208923339844 L 138.04598999023438 159.1141815185547 L 138.79673767089844 157.39755249023438 L 139.54750061035156 155.63504028320312 L 140.2982635498047 153.79197692871094 L 141.04901123046875 151.8750762939453 L 141.79977416992188 149.8839874267578 L 142.55052185058594 147.80938720703125 L 143.30128479003906 145.6521759033203 L 144.05203247070312 143.4014434814453 L 144.80279541015625 141.0941925048828 L 145.5535430908203 138.701416015625 L 146.30430603027344 136.25682067871094 L 147.05506896972656 133.7457733154297 L 147.80581665039062 131.1954803466797 L 148.55657958984375 128.6395263671875 L 149.3073272705078 126.0908432006836 L 150.05809020996094 123.55889129638672 L 150.808837890625 121.05181121826172 L 151.55960083007812 118.61266326904297 L 152.3103485107422 116.23737335205078 L 153.0611114501953 113.94074249267578 L 153.81185913085938 111.73331451416016 L 154.5626220703125 109.6173095703125 L 155.31338500976562 107.60750579833984 L 156.0641326904297 105.6780776977539 L 156.8148956298828 103.85826110839844 L 157.56564331054688 102.13379669189453 L 158.31640625 100.47319030761719 L 159.06715393066406 98.8979721069336 L 159.8179168701172 97.3799819946289 L 160.56866455078125 95.8890151977539 L 161.31942749023438 94.43315124511719 L 162.0701904296875 92.9642105102539 L 162.82093811035156 91.50991821289062 L 163.5717010498047 90.04317474365234 L 164.32244873046875 88.55365753173828 L 165.07321166992188 87.02828979492188 L 165.82395935058594 85.48085021972656 L 166.57472229003906 83.90186309814453 L 167.32546997070312 82.27139282226562 L 168.07623291015625 80.62589263916016 L 168.8269805908203 78.93883514404297 L 169.57774353027344 77.22019958496094 L 170.32850646972656 75.49053192138672 L 171.07925415039062 73.75460052490234 L 171.83001708984375 72.00255584716797 L 172.5807647705078 70.25273895263672 L 173.33152770996094 68.50791931152344 L 174.082275390625 66.7568130493164 L 174.83303833007812 64.99591064453125 L 175.5837860107422 63.2988395690918 L 176.3345489501953 61.59978103637695 L 177.08531188964844 59.94468307495117 L 177.8360595703125 58.315216064453125 L 178.58682250976562 56.70255661010742 L 179.3375701904297 55.147987365722656 L 180.0883331298828 53.64912414550781 L 180.83908081054688 52.19740295410156 L 181.58984375 50.82098388671875 L 182.34059143066406 49.51156234741211 L 183.0913543701172 48.270484924316406 L 183.8421173095703 47.129947662353516 L 184.59286499023438 46.069664001464844 L 185.3436279296875 45.11293411254883 L 186.09437561035156 44.260887145996094 L 186.8451385498047 43.51814270019531 L 187.59588623046875 42.84674072265625 L 188.34664916992188 42.28185272216797 L 189.09739685058594 41.79736328125 L 189.84815979003906 41.39604187011719 L 190.59890747070312 41.06358337402344 L 191.34967041015625 40.783504486083984 L 192.10043334960938 40.571224212646484 L 192.85118103027344 40.3853645324707 L 193.60194396972656 40.25143814086914 L 194.35269165039062 40.13471221923828 L 195.10345458984375 40.038230895996094 L 195.8542022705078 39.94725036621094 L 196.60496520996094 39.851009368896484 L 197.355712890625 39.712371826171875 L 198.10647583007812 39.6077766418457 L 198.85723876953125 39.490211486816406 L 199.6079864501953 39.3426513671875 L 200.35874938964844 39.21759796142578 L 201.1094970703125 39.08158874511719 L 201.86026000976562 38.94285202026367 L 202.6110076904297 38.81779098510742 L 203.3617706298828 38.70192337036133 L 204.11251831054688 38.59964370727539 L 204.86328125 38.52433395385742 L 205.61404418945312 38.42356872558594 L 206.3647918701172 38.38518524169922 L 207.1155548095703 38.3636360168457 L 207.86630249023438 38.389495849609375 L 208.6170654296875 38.46002197265625 L 209.36781311035156 38.541683197021484 L 210.1185760498047 38.679847717285156 L 210.86932373046875 38.85820388793945 L 211.62008666992188 39.091609954833984 L 212.37083435058594 39.377628326416016 L 213.12159729003906 39.723880767822266 L 213.8723602294922 40.09580612182617 L 214.62310791015625 40.560035705566406 L 215.37387084960938 41.08820724487305 L 216.12461853027344 41.67202377319336 L 216.87538146972656 42.33296203613281 L 217.62612915039062 43.06562423706055 L 218.37689208984375 43.87275314331055 L 219.1276397705078 44.72653579711914 L 219.87840270996094 45.65036392211914 L 220.62916564941406 46.64620590209961 L 221.37991333007812 47.711204528808594 L 222.13067626953125 48.82746887207031 L 222.8814239501953 50.005897521972656 L 223.63218688964844 51.208370208740234 L 224.3829345703125 52.46420669555664 L 225.13369750976562 53.726470947265625 L 225.8844451904297 55.04998016357422 L 226.6352081298828 56.43126678466797 L 227.38595581054688 57.8273811340332 L 228.13671875 59.2440299987793 L 228.88748168945312 60.69114303588867 L 229.6382293701172 62.15668869018555 L 230.3889923095703 63.63267517089844 L 231.13973999023438 65.15218353271484 L 231.8905029296875 66.69338989257812 L 232.64125061035156 68.24681854248047 L 233.3920135498047 69.8198471069336 L 234.14276123046875 71.41587829589844 L 234.89352416992188 73.0184326171875 L 235.644287109375 74.65972137451172 L 236.39503479003906 76.31163787841797 L 237.1457977294922 77.97482299804688 L 237.89654541015625 79.64381408691406 L 238.64730834960938 81.32722473144531 L 239.39805603027344 83.00546264648438 L 240.14881896972656 84.67475128173828 L 240.89956665039062 86.35381317138672 L 241.65032958984375 88.03448486328125 L 242.40109252929688 89.70551300048828 L 243.15184020996094 91.37920379638672 L 243.90260314941406 93.05191802978516 L 244.65335083007812 94.74445343017578 L 245.40411376953125 96.46218872070312 L 246.1548614501953 98.1651382446289 L 246.90562438964844 99.91412353515625 L 247.6563720703125 101.68452453613281 L 248.40713500976562 103.47309875488281 L 249.1578826904297 105.32051849365234 L 249.9086456298828 107.2132568359375 L 250.65940856933594 109.13719940185547 L 251.41015625 111.11680603027344 L 252.16091918945312 113.1619644165039 L 252.9116668701172 115.23131561279297 L 253.6624298095703 117.37029266357422 L 254.41317749023438 119.53527069091797 L 255.1639404296875 121.73658752441406 L 255.91468811035156 123.9612808227539 L 256.6654357910156 126.21269226074219 L 257.41619873046875 128.49530029296875 L 258.1669616699219 130.77418518066406 L 258.917724609375 133.02781677246094 L 259.6684875488281 135.27073669433594 L 260.4192199707031 137.4828643798828 L 261.16998291015625 139.65513610839844 L 261.9207458496094 141.79766845703125 L 262.6715087890625 143.8693084716797 L 263.4222412109375 145.87811279296875 L 264.1730041503906 147.84117126464844 L 264.92376708984375 149.74366760253906 L 265.6745300292969 151.59779357910156 L 266.42529296875 153.39297485351562 L 267.176025390625 155.1445770263672 L 267.9267883300781 156.8537139892578 L 268.67755126953125 158.52066040039062 L 269.4283142089844 160.15298461914062 L 270.1790466308594 161.78050231933594 L 270.9298095703125 163.38255310058594 L 271.6805725097656 164.97235107421875 L 272.43133544921875 166.57513427734375 L 273.1820983886719 168.1888885498047 L 273.9328308105469 169.80133056640625 L 274.68359375 171.41722106933594 L 275.4343566894531 173.05052185058594 L 276.18511962890625 174.70126342773438 L 276.93585205078125 176.3676300048828 L 277.6866149902344 178.0461883544922 L 278.4373779296875 179.74002075195312 L 279.1881408691406 181.42098999023438 L 279.93890380859375 183.09202575683594 L 280.68963623046875 184.7825927734375 L 281.4403991699219 186.45867919921875 L 282.191162109375 188.1100311279297 L 282.9419250488281 189.74880981445312 L 283.6926574707031 191.36380004882812 L 284.44342041015625 192.96083068847656 L 285.1941833496094 194.52963256835938 L 285.9449462890625 196.0693359375 L 286.6957092285156 197.57217407226562 L 287.4464416503906 199.05313110351562 L 288.19720458984375 200.4969024658203 L 288.9479675292969 201.9004669189453 L 289.69873046875 203.26654052734375 L 290.449462890625 204.61468505859375 L 291.2002258300781 205.92636108398438 L 291.95098876953125 207.20594787597656 L 292.7017517089844 208.447509765625 L 293.4525146484375 209.66677856445312 L 294.2032470703125 210.848876953125 L 294.9540100097656 211.9902801513672 L 295.70477294921875 213.1133575439453 L 296.4555358886719 214.20851135253906 L 297.2062683105469 215.26528930664062 L 297.95703125 216.29544067382812 L 298.7077941894531 217.29837036132812 L 299.45855712890625 218.27235412597656 L 300.20928955078125 219.21435546875 L 300.9600524902344 220.13409423828125 L 301.7108154296875 221.0233154296875 L 302.4615783691406 221.88766479492188 L 303.21234130859375 222.7310333251953 L 303.96307373046875 223.56289672851562 L 304.7138366699219 224.37391662597656 L 305.464599609375 225.1781463623047 L 306.2153625488281 225.963623046875 L 306.9660949707031 226.74017333984375 L 307.71685791015625 227.50404357910156 L 308.4676208496094 228.26760864257812 L 309.2183837890625 229.02793884277344 L 309.9691467285156 229.78506469726562 L 310.7198791503906 230.54087829589844 L 311.47064208984375 231.29290771484375 L 312.2214050292969 232.03892517089844 L 312.97216796875 232.78163146972656 L 313.722900390625 233.5165252685547 L 314.4736633300781 234.23947143554688 L 315.22442626953125 234.94766235351562 L 315.9751892089844 235.64329528808594 L 316.7259521484375 236.3201446533203 L 317.4766845703125 236.98143005371094 L 318.2274475097656 237.61607360839844 L 318.97821044921875 238.2262725830078 L 319.7289733886719 238.8103790283203 L 320.4797058105469 239.3634033203125 L 321.23046875 239.8877716064453 L 321.9812316894531 240.38372802734375 L 322.73199462890625 240.85214233398438 L 323.4827575683594 241.29690551757812 L 324.2334899902344 241.7176971435547 L 324.9842529296875 242.11773681640625 L 325.7350158691406 242.50364685058594 L 326.48577880859375 242.8698272705078 L 327.23651123046875 243.23477172851562 L 327.9872741699219 243.59896850585938 L 328.738037109375 243.95135498046875 L 329.4888000488281 244.30718994140625 L 330.23956298828125 244.6697540283203 L 330.99029541015625 245.03468322753906 L 331.7410583496094 245.39938354492188 L 332.4918212890625 245.77073669433594 L 333.2425842285156 246.15174865722656 L 333.9933166503906 246.53602600097656 L 334.74407958984375 246.9293975830078 L 335.4948425292969 247.32763671875 L 336.24560546875 247.72935485839844 L 336.996337890625 248.12905883789062 L 337.7471008300781 248.5253448486328 L 338.49786376953125 248.90699768066406 L 339.2486267089844 249.28079223632812 L 339.9993896484375 249.6441192626953 L 340.7501220703125 249.99363708496094 L 341.5008850097656 250.32711791992188 L 342.25164794921875 250.64346313476562 L 343.0024108886719 250.9365997314453 L 343.7531433105469 251.21090698242188 L 344.50390625 251.4635772705078 L 345.2546691894531 251.69601440429688 L 346.00543212890625 251.9064178466797 L 346.7561950683594 252.0954132080078 L 347.5069274902344 252.26148986816406 L 348.2576904296875 252.41119384765625 L 349.0084533691406 252.54307556152344 L 349.75921630859375 252.66078186035156 L 350.50994873046875 252.75701904296875 L 351.2607116699219 252.84400939941406 L 352.011474609375 252.91224670410156 L 352.7622375488281 252.97061157226562 L 353.51300048828125 253.01922607421875 L 354.26373291015625 253.06239318847656 L 355.0144958496094 253.09881591796875 L 355.7652587890625 253.12850952148438 L 356.5160217285156 253.15533447265625 L 357.2667541503906 253.18026733398438 L 358.01751708984375 253.20118713378906 L 358.7682800292969 253.22360229492188 L 359.51904296875 253.24581909179688 L 360.2698059082031 253.26956176757812 L 361.0205383300781 253.29541015625 L 361.77130126953125 253.32119750976562 L 362.5220642089844 253.35093688964844 L 363.2728271484375 253.3839569091797 L 364.0235595703125 253.4199981689453 L 364.7743225097656 253.45974731445312 L 365.52508544921875 253.50083923339844 L 366.2758483886719 253.54507446289062 L 367.026611328125 253.5937042236328 L 367.77734375 253.6444854736328 L 368.5281066894531 253.6964874267578 L 369.27886962890625 253.7497100830078 L 370.0296325683594 253.805419921875 L 370.7803649902344 253.86231994628906 L 371.5311279296875 253.9197235107422 L 372.2818908691406 253.9791717529297 L 373.03265380859375 254.03872680664062 L 373.7834167480469 254.09996032714844 L 374.5341491699219 254.1632537841797 L 375.284912109375 254.22425842285156 L 376.0356750488281 254.28587341308594 L 376.78643798828125 254.347900390625 L 377.53717041015625 254.41090393066406 L 378.2879333496094 254.4729766845703 L 379.0386962890625 254.5357208251953 L 379.7894592285156 254.5994873046875 L 380.5401916503906 254.66065979003906 L 381.29095458984375 254.72039794921875 L 382.0417175292969 254.7794952392578 L 382.79248046875 254.8377227783203 L 383.5432434082031 254.897216796875 L 384.2939758300781 254.95333862304688 L 385.04473876953125 255.00624084472656 L 385.7955017089844 255.05751037597656 L 386.5462646484375 255.1102294921875 L 387.2969970703125 255.15904235839844 L 388.0477600097656 255.20591735839844 L 388.79852294921875 255.25 L 389.5492858886719 255.29293823242188 L 390.300048828125 255.33285522460938 L 391.05078125 255.37295532226562 L 391.8015441894531 255.4078826904297 L 392.55230712890625 255.44061279296875 L 393.3030700683594 255.4709930419922 L 394.0538024902344 255.49891662597656 L 394.8045654296875 255.52426147460938 L 395.5553283691406 255.54925537109375 L 396.30609130859375 255.5693817138672 L 397.0568542480469 255.5859832763672 L 397.8075866699219 255.6000518798828 L 398.558349609375 255.6123809814453 L 399.3091125488281 255.62132263183594 L 400.05987548828125 255.62803649902344 L 400.81060791015625 255.6331787109375 L 401.5613708496094 255.63601684570312 L 402.3121337890625 255.63636779785156 L 403.0628967285156 255.63552856445312 L 403.81365966796875 255.63380432128906 L 404.56439208984375 255.63229370117188 L 405.3151550292969 255.6295928955078 L 406.06591796875 255.6278076171875 L 406.8166809082031 255.6244354248047 L 407.5674133300781 255.6224822998047 L 408.31817626953125 255.62136840820312" stroke-opacity="1" stroke-linejoin="bevel" stroke-miterlimit="10" stroke-width="1.5" stroke-dasharray="" clip-path="url(#gFURkREvRzsT)"/><path fill="none" stroke="none"/><path fill="none" stroke="rgb(0,0,0)" paint-order="fill" d="M 120.94144439697266 251.179443359375 L 280.7693176269531 251.179443359375" stroke-opacity="1" stroke-linejoin="bevel" stroke-miterlimit="10" stroke-width="3" stroke-dasharray="" clip-path="url(#AuRCeoWByJua)"/><path fill="none" stroke="none"/><text fill="rgb(0,0,0)" stroke="none" font-family="helvetica" font-size="16px" font-style="normal" font-weight="normal" text-decoration="normal" x="0" y="0" text-anchor="middle" dominant-baseline="text-after-edge" transform="matrix(1, 0, 0, 1, 120.94144439697266, 239.3616180419922)" fill-opacity="1">0.24</text><text fill="rgb(0,0,0)" stroke="none" font-family="helvetica" font-size="16px" font-style="normal" font-weight="normal" text-decoration="normal" x="0" y="0" text-anchor="middle" dominant-baseline="text-after-edge" transform="matrix(1, 0, 0, 1, 280.7693176269531, 239.3616180419922)" fill-opacity="1">0.29</text><text fill="rgb(0,0,0)" stroke="none" font-family="helvetica" font-size="16px" font-style="normal" font-weight="normal" text-decoration="normal" x="0" y="0" text-anchor="middle" dominant-baseline="text-after-edge" transform="matrix(1, 0, 0, 1, 200.85540771484375, 184.99960327148438)" fill-opacity="1">89% HDI</text><path fill="none" stroke="none"/><text fill="rgb(0,0,0)" stroke="none" font-family="helvetica" font-size="16px" font-style="normal" font-weight="normal" text-decoration="normal" x="0" y="0" text-anchor="middle" dominant-baseline="text-after-edge" transform="matrix(1, 0, 0, 1, 203.59999084472656, 66.82134246826172)" fill-opacity="1">mean=0.27</text><path fill="none" stroke="rgb(0,0,0)" paint-order="fill" d="M 5.5 266.5 L 427.5 266.5" stroke-opacity="1" stroke-linejoin="bevel" stroke-miterlimit="10" stroke-dasharray=""/><path fill="none" stroke="rgb(0,0,0)" paint-order="fill" d="M 53.5 272.5 L 53.5 264.5 M 118.5 272.5 L 118.5 264.5 M 182.5 272.5 L 182.5 264.5 M 247.5 272.5 L 247.5 264.5 M 311.5 272.5 L 311.5 264.5 M 376.5 272.5 L 376.5 264.5" stroke-opacity="1" stroke-linejoin="bevel" stroke-miterlimit="10" stroke-dasharray=""/><path fill="none" stroke="rgb(0,0,0)" paint-order="fill" d="M 40.5 270.5 L 40.5 266.5 M 27.5 270.5 L 27.5 266.5 M 15.5 270.5 L 15.5 266.5 M 53.5 270.5 L 53.5 266.5 M 66.5 270.5 L 66.5 266.5 M 79.5 270.5 L 79.5 266.5 M 92.5 270.5 L 92.5 266.5 M 105.5 270.5 L 105.5 266.5 M 118.5 270.5 L 118.5 266.5 M 131.5 270.5 L 131.5 266.5 M 144.5 270.5 L 144.5 266.5 M 156.5 270.5 L 156.5 266.5 M 169.5 270.5 L 169.5 266.5 M 182.5 270.5 L 182.5 266.5 M 195.5 270.5 L 195.5 266.5 M 208.5 270.5 L 208.5 266.5 M 221.5 270.5 L 221.5 266.5 M 234.5 270.5 L 234.5 266.5 M 247.5 270.5 L 247.5 266.5 M 260.5 270.5 L 260.5 266.5 M 273.5 270.5 L 273.5 266.5 M 285.5 270.5 L 285.5 266.5 M 298.5 270.5 L 298.5 266.5 M 311.5 270.5 L 311.5 266.5 M 324.5 270.5 L 324.5 266.5 M 337.5 270.5 L 337.5 266.5 M 350.5 270.5 L 350.5 266.5 M 363.5 270.5 L 363.5 266.5 M 376.5 270.5 L 376.5 266.5 M 389.5 270.5 L 389.5 266.5 M 402.5 270.5 L 402.5 266.5 M 414.5 270.5 L 414.5 266.5" stroke-opacity="1" stroke-linejoin="bevel" stroke-miterlimit="10" stroke-dasharray=""/><text fill="rgb(68,68,68)" stroke="none" font-family="helvetica" font-size="11px" font-style="normal" font-weight="normal" text-decoration="normal" x="42.58106231689453" y="285" text-anchor="start" dominant-baseline="alphabetic" transform="matrix(1, 0, 0, 1, 0.5, 0.5)" fill-opacity="1">0.22</text><text fill="rgb(68,68,68)" stroke="none" font-family="helvetica" font-size="11px" font-style="normal" font-weight="normal" text-decoration="normal" x="107.06742858886719" y="285" text-anchor="start" dominant-baseline="alphabetic" transform="matrix(1, 0, 0, 1, 0.5, 0.5)" fill-opacity="1">0.24</text><text fill="rgb(68,68,68)" stroke="none" font-family="helvetica" font-size="11px" font-style="normal" font-weight="normal" text-decoration="normal" x="171.55380249023438" y="285" text-anchor="start" dominant-baseline="alphabetic" transform="matrix(1, 0, 0, 1, 0.5, 0.5)" fill-opacity="1">0.26</text><text fill="rgb(68,68,68)" stroke="none" font-family="helvetica" font-size="11px" font-style="normal" font-weight="normal" text-decoration="normal" x="236.04017639160156" y="285" text-anchor="start" dominant-baseline="alphabetic" transform="matrix(1, 0, 0, 1, 0.5, 0.5)" fill-opacity="1">0.28</text><text fill="rgb(68,68,68)" stroke="none" font-family="helvetica" font-size="11px" font-style="normal" font-weight="normal" text-decoration="normal" x="303.58538818359375" y="285" text-anchor="start" dominant-baseline="alphabetic" transform="matrix(1, 0, 0, 1, 0.5, 0.5)" fill-opacity="1">0.3</text><text fill="rgb(68,68,68)" stroke="none" font-family="helvetica" font-size="11px" font-style="normal" font-weight="normal" text-decoration="normal" x="365.0129089355469" y="285" text-anchor="start" dominant-baseline="alphabetic" transform="matrix(1, 0, 0, 1, 0.5, 0.5)" fill-opacity="1">0.32</text><path fill="none" stroke="none"/><text fill="rgb(68,68,68)" stroke="none" font-family="helvetica" font-size="13px" font-style="normal" font-weight="bold" text-decoration="normal" x="0" y="0" text-anchor="start" dominant-baseline="text-after-edge" transform="matrix(1, 0, 0, 1, 5.5, 22.5)" fill-opacity="1">φ</text></svg>