<svg version="1.1" xmlns="http://www.w3.org/2000/svg" xmlns:xlink="http://www.w3.org/1999/xlink" width="500" height="500"><defs><clipPath id="CAqFwUEwJhfz"><path fill="none" stroke="none" d="M 52.5 27.5 L 470.5 27.5 L 470.5 455.5 L 52.5 455.5 L 52.5 27.5"/></clipPath><clipPath id="mhSpWAvfWNGt"><path fill="none" stroke="none" d="M 52.5 27.5 L 470.5 27.5 L 470.5 455.5 L 52.5 455.5 L 52.5 27.5"/></clipPath><clipPath id="tJWuAfOCEWsP"><path fill="none" stroke="none" d="M 52.5 27.5 L 470.5 27.5 L 470.5 455.5 L 52.5 455.5 L 52.5 27.5"/></clipPath><clipPath id="JblqCsPQeuXg"><path fill="none" stroke="none" d="M 52.5 27.5 L 470.5 27.5 L 470.5 455.5 L 52.5 455.5 L 52.5 27.5"/></clipPath><clipPath id="pKmOOeVgpAvf"><path fill="none" stroke="none" d="M 52.5 27.5 L 470.5 27.5 L 470.5 455.5 L 52.5 455.5 L 52.5 27.5"/></clipPath><clipPath id="ynmMxwgSBhpx"><path fill="none" stroke="none" d="M 52.5 27.5 L 470.5 27.5 L 470.5 455.5 L 52.5 455.5 L 52.5 27.5"/></clipPath><clipPath id="ufCttXTnTCFW"><path fill="none" stroke="none" d="M 52.5 27.5 L 470.5 27.5 L 470.5 455.5 L 52.5 455.5 L 52.5 27.5"/></clipPath><clipPath id="irTVudBDouAq"><path fill="none" stroke="none" d="M 52.5 27.5 L 470.5 27.5 L 470.5 455.5 L 52.5 455.5 L 52.5 27.5"/></clipPath></defs><path fill="rgb(255,255,255)" stroke="none" paint-order="stroke" d="M 0.5 0.5 L 500.5 0.5 L 500.5 500.5 L 0.5 500.5 L 0.5 0.5" fill-opacity="1"/><rect fill="#FFFFFF" stroke="none" x="52" y="27" width="418" height="428" transform="matrix(1, 0, 0, 1, 0.5, 0.5)"/><path fill="rgb(255,255,255)" stroke="none" paint-order="stroke" d="M 52.5 27.5 L 470.5 27.5 L 470.5 455.5 L 52.5 455.5 L 52.5 27.5" fill-opacity="1"/><path fill="none" stroke="rgb(229,229,229)" paint-order="fill" d="M 52.5 27.5 L 470.5 27.5 L 470.5 455.5 L 52.5 455.5 L 52.5 27.5" stroke-opacity="1" stroke-linejoin="bevel" stroke-miterlimit="10" stroke-dasharray=""/><path fill="none" stroke="none"/><path fill="none" stroke="rgb(255,165,0)" paint-order="fill" d="M -164.24073791503906 271.0901184082031 L 1383.9073486328125 271.0901184082031" stroke-opacity="1" stroke-linejoin="bevel" stroke-miterlimit="10" stroke-width="3" stroke-dasharray="" clip-path="url(#CAqFwUEwJhfz)"/><path fill="none" stroke="rgb(229,229,229)" paint-order="fill" d="M 67.5 455.5 L 67.5 27.5 M 145.5 455.5 L 145.5 27.5 M 222.5 455.5 L 222.5 27.5 M 300.5 455.5 L 300.5 27.5 M 377.5 455.5 L 377.5 27.5 M 455.5 455.5 L 455.5 27.5" stroke-opacity="1" stroke-linejoin="bevel" stroke-miterlimit="10" stroke-dasharray="" clip-path="url(#mhSpWAvfWNGt)"/><path fill="none" stroke="rgb(229,229,229)" paint-order="fill" d="M 52.5 412.5 L 470.5 412.5 M 52.5 327.5 L 470.5 327.5 M 52.5 241.5 L 470.5 241.5 M 52.5 155.5 L 470.5 155.5 M 52.5 70.5 L 470.5 70.5" stroke-opacity="1" stroke-linejoin="bevel" stroke-miterlimit="10" stroke-dasharray="" clip-path="url(#tJWuAfOCEWsP)"/><path fill="rgb(255,165,0)" stroke="none" paint-order="stroke" d="M 455.0185241699219 330.70062255859375 L 455.0185241699219 330.70062255859375 L 420.615234375 330.70062255859375 L 386.2119445800781 330.70062255859375 L 351.80865478515625 330.70062255859375 L 317.4053649902344 330.70062255859375 L 317.4053649902344 330.70062255859375 L 283.0020446777344 330.70062255859375 L 248.59877014160156 330.70062255859375 L 214.1954803466797 330.70062255859375 L 214.1954803466797 330.70062255859375 L 179.79217529296875 330.70062255859375 L 179.79217529296875 330.70062255859375 L 179.79217529296875 330.70062255859375 L 179.79217529296875 330.70062255859375 L 179.79217529296875 330.70062255859375 L 145.38888549804688 330.70062255859375 L 110.985595703125 330.70062255859375 L 76.58230590820312 330.70062255859375 L 76.58230590820312 211.47962951660156 L 110.985595703125 211.47962951660156 L 145.38888549804688 211.47962951660156 L 179.79217529296875 211.47962951660156 L 179.79217529296875 211.47962951660156 L 179.79217529296875 211.47962951660156 L 179.79217529296875 211.47962951660156 L 179.79217529296875 211.47962951660156 L 214.1954803466797 211.47962951660156 L 214.1954803466797 211.47962951660156 L 248.59877014160156 211.47962951660156 L 283.0020446777344 211.47962951660156 L 317.4053649902344 211.47962951660156 L 317.4053649902344 211.47962951660156 L 351.80865478515625 211.47962951660156 L 386.2119445800781 211.47962951660156 L 420.615234375 211.47962951660156 L 455.0185241699219 211.47962951660156 Z" fill-opacity="0.2" clip-path="url(#JblqCsPQeuXg)"/><path fill="none" stroke="rgb(255,165,0)" paint-order="fill" d="M 455.0185241699219 330.70062255859375 L 455.0185241699219 330.70062255859375 L 420.615234375 330.70062255859375 L 386.2119445800781 330.70062255859375 L 351.80865478515625 330.70062255859375 L 317.4053649902344 330.70062255859375 L 317.4053649902344 330.70062255859375 L 283.0020446777344 330.70062255859375 L 248.59877014160156 330.70062255859375 L 214.1954803466797 330.70062255859375 L 214.1954803466797 330.70062255859375 L 179.79217529296875 330.70062255859375 L 179.79217529296875 330.70062255859375 L 179.79217529296875 330.70062255859375 L 179.79217529296875 330.70062255859375 L 179.79217529296875 330.70062255859375 L 145.38888549804688 330.70062255859375 L 110.985595703125 330.70062255859375 L 76.58230590820312 330.70062255859375" stroke-opacity="0.30196078431372547" stroke-linejoin="bevel" stroke-miterlimit="10" stroke-width="0.2" stroke-dasharray="" clip-path="url(#JblqCsPQeuXg)"/><path fill="none" stroke="rgb(255,165,0)" paint-order="fill" d="M 455.0185241699219 211.47962951660156 L 455.0185241699219 211.47962951660156 L 420.615234375 211.47962951660156 L 386.2119445800781 211.47962951660156 L 351.80865478515625 211.47962951660156 L 317.4053649902344 211.47962951660156 L 317.4053649902344 211.47962951660156 L 283.0020446777344 211.47962951660156 L 248.59877014160156 211.47962951660156 L 214.1954803466797 211.47962951660156 L 214.1954803466797 211.47962951660156 L 179.79217529296875 211.47962951660156 L 179.79217529296875 211.47962951660156 L 179.79217529296875 211.47962951660156 L 179.79217529296875 211.47962951660156 L 179.79217529296875 211.47962951660156 L 145.38888549804688 211.47962951660156 L 110.985595703125 211.47962951660156 L 76.58230590820312 211.47962951660156" stroke-opacity="0.30196078431372547" stroke-linejoin="bevel" stroke-miterlimit="10" stroke-width="0.2" stroke-dasharray="" clip-path="url(#JblqCsPQeuXg)"/><path fill="none" stroke="rgb(70,130,180)" paint-order="fill" d="M 455.0185241699219 292.15130615234375 L 455.0185241699219 249.71981811523438" stroke-opacity="1" stroke-linejoin="bevel" stroke-miterlimit="10" stroke-dasharray="" clip-path="url(#pKmOOeVgpAvf)"/><path fill="none" stroke="rgb(70,130,180)" paint-order="fill" d="M 420.615234375 292.15130615234375 L 420.615234375 249.71981811523438" stroke-opacity="1" stroke-linejoin="bevel" stroke-miterlimit="10" stroke-dasharray="" clip-path="url(#pKmOOeVgpAvf)"/><path fill="none" stroke="rgb(70,130,180)" paint-order="fill" d="M 386.2119445800781 292.15130615234375 L 386.2119445800781 249.71981811523438" stroke-opacity="1" stroke-linejoin="bevel" stroke-miterlimit="10" stroke-dasharray="" clip-path="url(#pKmOOeVgpAvf)"/><path fill="none" stroke="rgb(70,130,180)" paint-order="fill" d="M 351.80865478515625 292.15130615234375 L 351.80865478515625 249.71981811523438" stroke-opacity="1" stroke-linejoin="bevel" stroke-miterlimit="10" stroke-dasharray="" clip-path="url(#pKmOOeVgpAvf)"/><path fill="none" stroke="rgb(70,130,180)" paint-order="fill" d="M 317.4053649902344 292.15130615234375 L 317.4053649902344 249.71981811523438" stroke-opacity="1" stroke-linejoin="bevel" stroke-miterlimit="10" stroke-dasharray="" clip-path="url(#pKmOOeVgpAvf)"/><path fill="none" stroke="rgb(70,130,180)" paint-order="fill" d="M 317.4053649902344 292.15130615234375 L 317.4053649902344 249.71981811523438" stroke-opacity="1" stroke-linejoin="bevel" stroke-miterlimit="10" stroke-dasharray="" clip-path="url(#pKmOOeVgpAvf)"/><path fill="none" stroke="rgb(70,130,180)" paint-order="fill" d="M 283.0020446777344 292.15130615234375 L 283.0020446777344 249.71981811523438" stroke-opacity="1" stroke-linejoin="bevel" stroke-miterlimit="10" stroke-dasharray="" clip-path="url(#pKmOOeVgpAvf)"/><path fill="none" stroke="rgb(70,130,180)" paint-order="fill" d="M 248.59877014160156 292.15130615234375 L 248.59877014160156 249.71981811523438" stroke-opacity="1" stroke-linejoin="bevel" stroke-miterlimit="10" stroke-dasharray="" clip-path="url(#pKmOOeVgpAvf)"/><path fill="none" stroke="rgb(70,130,180)" paint-order="fill" d="M 214.1954803466797 292.15130615234375 L 214.1954803466797 249.71981811523438" stroke-opacity="1" stroke-linejoin="bevel" stroke-miterlimit="10" stroke-dasharray="" clip-path="url(#pKmOOeVgpAvf)"/><path fill="none" stroke="rgb(70,130,180)" paint-order="fill" d="M 214.1954803466797 292.15130615234375 L 214.1954803466797 249.71981811523438" stroke-opacity="1" stroke-linejoin="bevel" stroke-miterlimit="10" stroke-dasharray="" clip-path="url(#pKmOOeVgpAvf)"/><path fill="none" stroke="rgb(70,130,180)" paint-order="fill" d="M 179.79217529296875 292.15130615234375 L 179.79217529296875 249.71981811523438" stroke-opacity="1" stroke-linejoin="bevel" stroke-miterlimit="10" stroke-dasharray="" clip-path="url(#pKmOOeVgpAvf)"/><path fill="none" stroke="rgb(70,130,180)" paint-order="fill" d="M 179.79217529296875 292.15130615234375 L 179.79217529296875 249.71981811523438" stroke-opacity="1" stroke-linejoin="bevel" stroke-miterlimit="10" stroke-dasharray="" clip-path="url(#pKmOOeVgpAvf)"/><path fill="none" stroke="rgb(70,130,180)" paint-order="fill" d="M 179.79217529296875 292.15130615234375 L 179.79217529296875 249.71981811523438" stroke-opacity="1" stroke-linejoin="bevel" stroke-miterlimit="10" stroke-dasharray="" clip-path="url(#pKmOOeVgpAvf)"/><path fill="none" stroke="rgb(70,130,180)" paint-order="fill" d="M 179.79217529296875 292.15130615234375 L 179.79217529296875 249.71981811523438" stroke-opacity="1" stroke-linejoin="bevel" stroke-miterlimit="10" stroke-dasharray="" clip-path="url(#pKmOOeVgpAvf)"/><path fill="none" stroke="rgb(70,130,180)" paint-order="fill" d="M 179.79217529296875 292.15130615234375 L 179.79217529296875 249.71981811523438" stroke-opacity="1" stroke-linejoin="bevel" stroke-miterlimit="10" stroke-dasharray="" clip-path="url(#pKmOOeVgpAvf)"/><path fill="none" stroke="rgb(70,130,180)" paint-order="fill" d="M 145.38888549804688 292.15130615234375 L 145.38888549804688 249.71981811523438" stroke-opacity="1" stroke-linejoin="bevel" stroke-miterlimit="10" stroke-dasharray="" clip-path="url(#pKmOOeVgpAvf)"/><path fill="none" stroke="rgb(70,130,180)" paint-order="fill" d="M 110.985595703125 292.15130615234375 L 110.985595703125 249.71981811523438" stroke-opacity="1" stroke-linejoin="bevel" stroke-miterlimit="10" stroke-dasharray="" clip-path="url(#pKmOOeVgpAvf)"/><path fill="none" stroke="rgb(70,130,180)" paint-order="fill" d="M 76.58230590820312 292.15130615234375 L 76.58230590820312 249.71981811523438" stroke-opacity="1" stroke-linejoin="bevel" stroke-miterlimit="10" stroke-dasharray="" clip-path="url(#pKmOOeVgpAvf)"/><path fill="none" stroke="rgb(70,130,180)" paint-order="fill" d="M 450.0185241699219 292.15130615234375 L 460.0185241699219 292.15130615234375" stroke-opacity="1" stroke-linejoin="bevel" stroke-miterlimit="10" stroke-dasharray="" clip-path="url(#pKmOOeVgpAvf)"/><path fill="none" stroke="rgb(70,130,180)" paint-order="fill" d="M 415.615234375 292.15130615234375 L 425.615234375 292.15130615234375" stroke-opacity="1" stroke-linejoin="bevel" stroke-miterlimit="10" stroke-dasharray="" clip-path="url(#pKmOOeVgpAvf)"/><path fill="none" stroke="rgb(70,130,180)" paint-order="fill" d="M 381.2119445800781 292.15130615234375 L 391.2119445800781 292.15130615234375" stroke-opacity="1" stroke-linejoin="bevel" stroke-miterlimit="10" stroke-dasharray="" clip-path="url(#pKmOOeVgpAvf)"/><path fill="none" stroke="rgb(70,130,180)" paint-order="fill" d="M 346.80865478515625 292.15130615234375 L 356.80865478515625 292.15130615234375" stroke-opacity="1" stroke-linejoin="bevel" stroke-miterlimit="10" stroke-dasharray="" clip-path="url(#pKmOOeVgpAvf)"/><path fill="none" stroke="rgb(70,130,180)" paint-order="fill" d="M 312.4053649902344 292.15130615234375 L 322.4053649902344 292.15130615234375" stroke-opacity="1" stroke-linejoin="bevel" stroke-miterlimit="10" stroke-dasharray="" clip-path="url(#pKmOOeVgpAvf)"/><path fill="none" stroke="rgb(70,130,180)" paint-order="fill" d="M 312.4053649902344 292.15130615234375 L 322.4053649902344 292.15130615234375" stroke-opacity="1" stroke-linejoin="bevel" stroke-miterlimit="10" stroke-dasharray="" clip-path="url(#pKmOOeVgpAvf)"/><path fill="none" stroke="rgb(70,130,180)" paint-order="fill" d="M 278.0020446777344 292.15130615234375 L 288.0020446777344 292.15130615234375" stroke-opacity="1" stroke-linejoin="bevel" stroke-miterlimit="10" stroke-dasharray="" clip-path="url(#pKmOOeVgpAvf)"/><path fill="none" stroke="rgb(70,130,180)" paint-order="fill" d="M 243.59877014160156 292.15130615234375 L 253.59877014160156 292.15130615234375" stroke-opacity="1" stroke-linejoin="bevel" stroke-miterlimit="10" stroke-dasharray="" clip-path="url(#pKmOOeVgpAvf)"/><path fill="none" stroke="rgb(70,130,180)" paint-order="fill" d="M 209.1954803466797 292.15130615234375 L 219.1954803466797 292.15130615234375" stroke-opacity="1" stroke-linejoin="bevel" stroke-miterlimit="10" stroke-dasharray="" clip-path="url(#pKmOOeVgpAvf)"/><path fill="none" stroke="rgb(70,130,180)" paint-order="fill" d="M 209.1954803466797 292.15130615234375 L 219.1954803466797 292.15130615234375" stroke-opacity="1" stroke-linejoin="bevel" stroke-miterlimit="10" stroke-dasharray="" clip-path="url(#pKmOOeVgpAvf)"/><path fill="none" stroke="rgb(70,130,180)" paint-order="fill" d="M 174.79217529296875 292.15130615234375 L 184.79217529296875 292.15130615234375" stroke-opacity="1" stroke-linejoin="bevel" stroke-miterlimit="10" stroke-dasharray="" clip-path="url(#pKmOOeVgpAvf)"/><path fill="none" stroke="rgb(70,130,180)" paint-order="fill" d="M 174.79217529296875 292.15130615234375 L 184.79217529296875 292.15130615234375" stroke-opacity="1" stroke-linejoin="bevel" stroke-miterlimit="10" stroke-dasharray="" clip-path="url(#pKmOOeVgpAvf)"/><path fill="none" stroke="rgb(70,130,180)" paint-order="fill" d="M 174.79217529296875 292.15130615234375 L 184.79217529296875 292.15130615234375" stroke-opacity="1" stroke-linejoin="bevel" stroke-miterlimit="10" stroke-dasharray="" clip-path="url(#pKmOOeVgpAvf)"/><path fill="none" stroke="rgb(70,130,180)" paint-order="fill" d="M 174.79217529296875 292.15130615234375 L 184.79217529296875 292.15130615234375" stroke-opacity="1" stroke-linejoin="bevel" stroke-miterlimit="10" stroke-dasharray="" clip-path="url(#pKmOOeVgpAvf)"/><path fill="none" stroke="rgb(70,130,180)" paint-order="fill" d="M 174.79217529296875 292.15130615234375 L 184.79217529296875 292.15130615234375" stroke-opacity="1" stroke-linejoin="bevel" stroke-miterlimit="10" stroke-dasharray="" clip-path="url(#pKmOOeVgpAvf)"/><path fill="none" stroke="rgb(70,130,180)" paint-order="fill" d="M 140.38888549804688 292.15130615234375 L 150.38888549804688 292.15130615234375" stroke-opacity="1" stroke-linejoin="bevel" stroke-miterlimit="10" stroke-dasharray="" clip-path="url(#pKmOOeVgpAvf)"/><path fill="none" stroke="rgb(70,130,180)" paint-order="fill" d="M 105.985595703125 292.15130615234375 L 115.985595703125 292.15130615234375" stroke-opacity="1" stroke-linejoin="bevel" stroke-miterlimit="10" stroke-dasharray="" clip-path="url(#pKmOOeVgpAvf)"/><path fill="none" stroke="rgb(70,130,180)" paint-order="fill" d="M 71.58230590820312 292.15130615234375 L 81.58230590820312 292.15130615234375" stroke-opacity="1" stroke-linejoin="bevel" stroke-miterlimit="10" stroke-dasharray="" clip-path="url(#pKmOOeVgpAvf)"/><path fill="none" stroke="rgb(70,130,180)" paint-order="fill" d="M 460.0185241699219 249.71981811523438 L 450.0185241699219 249.71981811523438" stroke-opacity="1" stroke-linejoin="bevel" stroke-miterlimit="10" stroke-dasharray="" clip-path="url(#pKmOOeVgpAvf)"/><path fill="none" stroke="rgb(70,130,180)" paint-order="fill" d="M 425.615234375 249.71981811523438 L 415.615234375 249.71981811523438" stroke-opacity="1" stroke-linejoin="bevel" stroke-miterlimit="10" stroke-dasharray="" clip-path="url(#pKmOOeVgpAvf)"/><path fill="none" stroke="rgb(70,130,180)" paint-order="fill" d="M 391.2119445800781 249.71981811523438 L 381.2119445800781 249.71981811523438" stroke-opacity="1" stroke-linejoin="bevel" stroke-miterlimit="10" stroke-dasharray="" clip-path="url(#pKmOOeVgpAvf)"/><path fill="none" stroke="rgb(70,130,180)" paint-order="fill" d="M 356.80865478515625 249.71981811523438 L 346.80865478515625 249.71981811523438" stroke-opacity="1" stroke-linejoin="bevel" stroke-miterlimit="10" stroke-dasharray="" clip-path="url(#pKmOOeVgpAvf)"/><path fill="none" stroke="rgb(70,130,180)" paint-order="fill" d="M 322.4053649902344 249.71981811523438 L 312.4053649902344 249.71981811523438" stroke-opacity="1" stroke-linejoin="bevel" stroke-miterlimit="10" stroke-dasharray="" clip-path="url(#pKmOOeVgpAvf)"/><path fill="none" stroke="rgb(70,130,180)" paint-order="fill" d="M 322.4053649902344 249.71981811523438 L 312.4053649902344 249.71981811523438" stroke-opacity="1" stroke-linejoin="bevel" stroke-miterlimit="10" stroke-dasharray="" clip-path="url(#pKmOOeVgpAvf)"/><path fill="none" stroke="rgb(70,130,180)" paint-order="fill" d="M 288.0020446777344 249.71981811523438 L 278.0020446777344 249.71981811523438" stroke-opacity="1" stroke-linejoin="bevel" stroke-miterlimit="10" stroke-dasharray="" clip-path="url(#pKmOOeVgpAvf)"/><path fill="none" stroke="rgb(70,130,180)" paint-order="fill" d="M 253.59877014160156 249.71981811523438 L 243.59877014160156 249.71981811523438" stroke-opacity="1" stroke-linejoin="bevel" stroke-miterlimit="10" stroke-dasharray="" clip-path="url(#pKmOOeVgpAvf)"/><path fill="none" stroke="rgb(70,130,180)" paint-order="fill" d="M 219.1954803466797 249.71981811523438 L 209.1954803466797 249.71981811523438" stroke-opacity="1" stroke-linejoin="bevel" stroke-miterlimit="10" stroke-dasharray="" clip-path="url(#pKmOOeVgpAvf)"/><path fill="none" stroke="rgb(70,130,180)" paint-order="fill" d="M 219.1954803466797 249.71981811523438 L 209.1954803466797 249.71981811523438" stroke-opacity="1" stroke-linejoin="bevel" stroke-miterlimit="10" stroke-dasharray="" clip-path="url(#pKmOOeVgpAvf)"/><path fill="none" stroke="rgb(70,130,180)" paint-order="fill" d="M 184.79217529296875 249.71981811523438 L 174.79217529296875 249.71981811523438" stroke-opacity="1" stroke-linejoin="bevel" stroke-miterlimit="10" stroke-dasharray="" clip-path="url(#pKmOOeVgpAvf)"/><path fill="none" stroke="rgb(70,130,180)" paint-order="fill" d="M 184.79217529296875 249.71981811523438 L 174.79217529296875 249.71981811523438" stroke-opacity="1" stroke-linejoin="bevel" stroke-miterlimit="10" stroke-dasharray="" clip-path="url(#pKmOOeVgpAvf)"/><path fill="none" stroke="rgb(70,130,180)" paint-order="fill" d="M 184.79217529296875 249.71981811523438 L 174.79217529296875 249.71981811523438" stroke-opacity="1" stroke-linejoin="bevel" stroke-miterlimit="10" stroke-dasharray="" clip-path="url(#pKmOOeVgpAvf)"/><path fill="none" stroke="rgb(70,130,180)" paint-order="fill" d="M 184.79217529296875 249.71981811523438 L 174.79217529296875 249.71981811523438" stroke-opacity="1" stroke-linejoin="bevel" stroke-miterlimit="10" stroke-dasharray="" clip-path="url(#pKmOOeVgpAvf)"/><path fill="none" stroke="rgb(70,130,180)" paint-order="fill" d="M 184.79217529296875 249.71981811523438 L 174.79217529296875 249.71981811523438" stroke-opacity="1" stroke-linejoin="bevel" stroke-miterlimit="10" stroke-dasharray="" clip-path="url(#pKmOOeVgpAvf)"/><path fill="none" stroke="rgb(70,130,180)" paint-order="fill" d="M 150.38888549804688 249.71981811523438 L 140.38888549804688 249.71981811523438" stroke-opacity="1" stroke-linejoin="bevel" stroke-miterlimit="10" stroke-dasharray="" clip-path="url(#pKmOOeVgpAvf)"/><path fill="none" stroke="rgb(70,130,180)" paint-order="fill" d="M 115.985595703125 249.71981811523438 L 105.985595703125 249.71981811523438" stroke-opacity="1" stroke-linejoin="bevel" stroke-miterlimit="10" stroke-dasharray="" clip-path="url(#pKmOOeVgpAvf)"/><path fill="none" stroke="rgb(70,130,180)" paint-order="fill" d="M 81.58230590820312 249.71981811523438 L 71.58230590820312 249.71981811523438" stroke-opacity="1" stroke-linejoin="bevel" stroke-miterlimit="10" stroke-dasharray="" clip-path="url(#pKmOOeVgpAvf)"/><path fill="none" stroke="none"/><path fill="rgb(70,130,180)" stroke="rgb(255,255,255)" paint-order="fill" d="M 460.0185241699219 269.64361572265625 A 5 5 0 1 1 460.0185216699221 269.6386157234896" fill-opacity="1" clip-path="url(#ynmMxwgSBhpx)" stroke-opacity="1" stroke-linejoin="bevel" stroke-miterlimit="10" stroke-dasharray=""/><path fill="rgb(70,130,180)" stroke="rgb(255,255,255)" paint-order="fill" d="M 425.615234375 269.64361572265625 A 5 5 0 1 1 425.61523187500023 269.6386157234896" fill-opacity="1" clip-path="url(#ynmMxwgSBhpx)" stroke-opacity="1" stroke-linejoin="bevel" stroke-miterlimit="10" stroke-dasharray=""/><path fill="rgb(70,130,180)" stroke="rgb(255,255,255)" paint-order="fill" d="M 391.2119445800781 269.64361572265625 A 5 5 0 1 1 391.21194208007836 269.6386157234896" fill-opacity="1" clip-path="url(#ynmMxwgSBhpx)" stroke-opacity="1" stroke-linejoin="bevel" stroke-miterlimit="10" stroke-dasharray=""/><path fill="rgb(70,130,180)" stroke="rgb(255,255,255)" paint-order="fill" d="M 356.80865478515625 269.64361572265625 A 5 5 0 1 1 356.8086522851565 269.6386157234896" fill-opacity="1" clip-path="url(#ynmMxwgSBhpx)" stroke-opacity="1" stroke-linejoin="bevel" stroke-miterlimit="10" stroke-dasharray=""/><path fill="rgb(70,130,180)" stroke="rgb(255,255,255)" paint-order="fill" d="M 322.4053649902344 269.64361572265625 A 5 5 0 1 1 322.4053624902346 269.6386157234896" fill-opacity="1" clip-path="url(#ynmMxwgSBhpx)" stroke-opacity="1" stroke-linejoin="bevel" stroke-miterlimit="10" stroke-dasharray=""/><path fill="rgb(70,130,180)" stroke="rgb(255,255,255)" paint-order="fill" d="M 322.4053649902344 269.64361572265625 A 5 5 0 1 1 322.4053624902346 269.6386157234896" fill-opacity="1" clip-path="url(#ynmMxwgSBhpx)" stroke-opacity="1" stroke-linejoin="bevel" stroke-miterlimit="10" stroke-dasharray=""/><path fill="rgb(70,130,180)" stroke="rgb(255,255,255)" paint-order="fill" d="M 288.0020446777344 269.64361572265625 A 5 5 0 1 1 288.0020421777346 269.6386157234896" fill-opacity="1" clip-path="url(#ynmMxwgSBhpx)" stroke-opacity="1" stroke-linejoin="bevel" stroke-miterlimit="10" stroke-dasharray=""/><path fill="rgb(70,130,180)" stroke="rgb(255,255,255)" paint-order="fill" d="M 253.59877014160156 269.64361572265625 A 5 5 0 1 1 253.59876764160177 269.6386157234896" fill-opacity="1" clip-path="url(#ynmMxwgSBhpx)" stroke-opacity="1" stroke-linejoin="bevel" stroke-miterlimit="10" stroke-dasharray=""/><path fill="rgb(70,130,180)" stroke="rgb(255,255,255)" paint-order="fill" d="M 219.1954803466797 269.64361572265625 A 5 5 0 1 1 219.1954778466799 269.6386157234896" fill-opacity="1" clip-path="url(#ynmMxwgSBhpx)" stroke-opacity="1" stroke-linejoin="bevel" stroke-miterlimit="10" stroke-dasharray=""/><path fill="rgb(70,130,180)" stroke="rgb(255,255,255)" paint-order="fill" d="M 219.1954803466797 269.64361572265625 A 5 5 0 1 1 219.1954778466799 269.6386157234896" fill-opacity="1" clip-path="url(#ynmMxwgSBhpx)" stroke-opacity="1" stroke-linejoin="bevel" stroke-miterlimit="10" stroke-dasharray=""/><path fill="rgb(70,130,180)" stroke="rgb(255,255,255)" paint-order="fill" d="M 184.79217529296875 269.64361572265625 A 5 5 0 1 1 184.79217279296896 269.6386157234896" fill-opacity="1" clip-path="url(#ynmMxwgSBhpx)" stroke-opacity="1" stroke-linejoin="bevel" stroke-miterlimit="10" stroke-dasharray=""/><path fill="rgb(70,130,180)" stroke="rgb(255,255,255)" paint-order="fill" d="M 184.79217529296875 269.64361572265625 A 5 5 0 1 1 184.79217279296896 269.6386157234896" fill-opacity="1" clip-path="url(#ynmMxwgSBhpx)" stroke-opacity="1" stroke-linejoin="bevel" stroke-miterlimit="10" stroke-dasharray=""/><path fill="rgb(70,130,180)" stroke="rgb(255,255,255)" paint-order="fill" d="M 184.79217529296875 269.64361572265625 A 5 5 0 1 1 184.79217279296896 269.6386157234896" fill-opacity="1" clip-path="url(#ynmMxwgSBhpx)" stroke-opacity="1" stroke-linejoin="bevel" stroke-miterlimit="10" stroke-dasharray=""/><path fill="rgb(70,130,180)" stroke="rgb(255,255,255)" paint-order="fill" d="M 184.79217529296875 269.64361572265625 A 5 5 0 1 1 184.79217279296896 269.6386157234896" fill-opacity="1" clip-path="url(#ynmMxwgSBhpx)" stroke-opacity="1" stroke-linejoin="bevel" stroke-miterlimit="10" stroke-dasharray=""/><path fill="rgb(70,130,180)" stroke="rgb(255,255,255)" paint-order="fill" d="M 184.79217529296875 269.64361572265625 A 5 5 0 1 1 184.79217279296896 269.6386157234896" fill-opacity="1" clip-path="url(#ynmMxwgSBhpx)" stroke-opacity="1" stroke-linejoin="bevel" stroke-miterlimit="10" stroke-dasharray=""/><path fill="rgb(70,130,180)" stroke="rgb(255,255,255)" paint-order="fill" d="M 150.38888549804688 269.64361572265625 A 5 5 0 1 1 150.38888299804708 269.6386157234896" fill-opacity="1" clip-path="url(#ynmMxwgSBhpx)" stroke-opacity="1" stroke-linejoin="bevel" stroke-miterlimit="10" stroke-dasharray=""/><path fill="rgb(70,130,180)" stroke="rgb(255,255,255)" paint-order="fill" d="M 115.985595703125 269.64361572265625 A 5 5 0 1 1 115.9855932031252 269.6386157234896" fill-opacity="1" clip-path="url(#ynmMxwgSBhpx)" stroke-opacity="1" stroke-linejoin="bevel" stroke-miterlimit="10" stroke-dasharray=""/><path fill="rgb(70,130,180)" stroke="rgb(255,255,255)" paint-order="fill" d="M 81.58230590820312 269.64361572265625 A 5 5 0 1 1 81.58230340820333 269.6386157234896" fill-opacity="1" clip-path="url(#ynmMxwgSBhpx)" stroke-opacity="1" stroke-linejoin="bevel" stroke-miterlimit="10" stroke-dasharray=""/><path fill="none" stroke="rgb(0,0,0)" paint-order="fill" d="M 52.5 455.5 L 470.5 455.5" stroke-opacity="1" stroke-linejoin="bevel" stroke-miterlimit="10" stroke-dasharray=""/><path fill="none" stroke="rgb(0,0,0)" paint-order="fill" d="M 67.5 461.5 L 67.5 453.5 M 145.5 461.5 L 145.5 453.5 M 222.5 461.5 L 222.5 453.5 M 300.5 461.5 L 300.5 453.5 M 377.5 461.5 L 377.5 453.5 M 455.5 461.5 L 455.5 453.5" stroke-opacity="1" stroke-linejoin="bevel" stroke-miterlimit="10" stroke-dasharray=""/><path fill="none" stroke="rgb(0,0,0)" paint-order="fill" d="M 52.5 459.5 L 52.5 455.5 M 67.5 459.5 L 67.5 455.5 M 83.5 459.5 L 83.5 455.5 M 98.5 459.5 L 98.5 455.5 M 114.5 459.5 L 114.5 455.5 M 129.5 459.5 L 129.5 455.5 M 145.5 459.5 L 145.5 455.5 M 160.5 459.5 L 160.5 455.5 M 176.5 459.5 L 176.5 455.5 M 191.5 459.5 L 191.5 455.5 M 207.5 459.5 L 207.5 455.5 M 222.5 459.5 L 222.5 455.5 M 238.5 459.5 L 238.5 455.5 M 253.5 459.5 L 253.5 455.5 M 269.5 459.5 L 269.5 455.5 M 284.5 459.5 L 284.5 455.5 M 300.5 459.5 L 300.5 455.5 M 315.5 459.5 L 315.5 455.5 M 331.5 459.5 L 331.5 455.5 M 346.5 459.5 L 346.5 455.5 M 362.5 459.5 L 362.5 455.5 M 377.5 459.5 L 377.5 455.5 M 393.5 459.5 L 393.5 455.5 M 408.5 459.5 L 408.5 455.5 M 424.5 459.5 L 424.5 455.5 M 439.5 459.5 L 439.5 455.5 M 455.5 459.5 L 455.5 455.5" stroke-opacity="1" stroke-linejoin="bevel" stroke-miterlimit="10" stroke-dasharray=""/><text fill="rgb(68,68,68)" stroke="none" font-family="helvetica" font-size="11px" font-style="normal" font-weight="normal" text-decoration="normal" x="56.776893615722656" y="474" text-anchor="start" dominant-baseline="alphabetic" transform="matrix(1, 0, 0, 1, 0.5, 0.5)" fill-opacity="1">0.15</text><text fill="rgb(68,68,68)" stroke="none" font-family="helvetica" font-size="11px" font-style="normal" font-weight="normal" text-decoration="normal" x="137.24313354492188" y="474" text-anchor="start" dominant-baseline="alphabetic" transform="matrix(1, 0, 0, 1, 0.5, 0.5)" fill-opacity="1">0.2</text><text fill="rgb(68,68,68)" stroke="none" font-family="helvetica" font-size="11px" font-style="normal" font-weight="normal" text-decoration="normal" x="211.59170532226562" y="474" text-anchor="start" dominant-baseline="alphabetic" transform="matrix(1, 0, 0, 1, 0.5, 0.5)" fill-opacity="1">0.25</text><text fill="rgb(68,68,68)" stroke="none" font-family="helvetica" font-size="11px" font-style="normal" font-weight="normal" text-decoration="normal" x="292.0579528808594" y="474" text-anchor="start" dominant-baseline="alphabetic" transform="matrix(1, 0, 0, 1, 0.5, 0.5)" fill-opacity="1">0.3</text><text fill="rgb(68,68,68)" stroke="none" font-family="helvetica" font-size="11px" font-style="normal" font-weight="normal" text-decoration="normal" x="366.4065246582031" y="474" text-anchor="start" dominant-baseline="alphabetic" transform="matrix(1, 0, 0, 1, 0.5, 0.5)" fill-opacity="1">0.35</text><text fill="rgb(68,68,68)" stroke="none" font-family="helvetica" font-size="11px" font-style="normal" font-weight="normal" text-decoration="normal" x="446.8727722167969" y="474" text-anchor="start" dominant-baseline="alphabetic" transform="matrix(1, 0, 0, 1, 0.5, 0.5)" fill-opacity="1">0.4</text><text fill="rgb(68,68,68)" stroke="none" font-family="helvetica" font-size="13px" font-style="italic" font-weight="normal" text-decoration="normal" x="195.609619140625" y="494" text-anchor="start" dominant-baseline="alphabetic" transform="matrix(1, 0, 0, 1, 0.5, 0.5)" fill-opacity="1">Observed hits / at-bats</text><path fill="none" stroke="rgb(0,0,0)" paint-order="fill" d="M 52.5 455.5 L 52.5 27.5" stroke-opacity="1" stroke-linejoin="bevel" stroke-miterlimit="10" stroke-dasharray=""/><path fill="none" stroke="rgb(0,0,0)" paint-order="fill" d="M 46.5 412.5 L 54.5 412.5 M 46.5 327.5 L 54.5 327.5 M 46.5 241.5 L 54.5 241.5 M 46.5 155.5 L 54.5 155.5 M 46.5 70.5 L 54.5 70.5" stroke-opacity="1" stroke-linejoin="bevel" stroke-miterlimit="10" stroke-dasharray=""/><path fill="none" stroke="rgb(0,0,0)" paint-order="fill" d="M 48.5 429.5 L 52.5 429.5 M 48.5 446.5 L 52.5 446.5 M 48.5 412.5 L 52.5 412.5 M 48.5 395.5 L 52.5 395.5 M 48.5 378.5 L 52.5 378.5 M 48.5 361.5 L 52.5 361.5 M 48.5 344.5 L 52.5 344.5 M 48.5 327.5 L 52.5 327.5 M 48.5 309.5 L 52.5 309.5 M 48.5 292.5 L 52.5 292.5 M 48.5 275.5 L 52.5 275.5 M 48.5 258.5 L 52.5 258.5 M 48.5 241.5 L 52.5 241.5 M 48.5 224.5 L 52.5 224.5 M 48.5 207.5 L 52.5 207.5 M 48.5 190.5 L 52.5 190.5 M 48.5 173.5 L 52.5 173.5 M 48.5 155.5 L 52.5 155.5 M 48.5 138.5 L 52.5 138.5 M 48.5 121.5 L 52.5 121.5 M 48.5 104.5 L 52.5 104.5 M 48.5 87.5 L 52.5 87.5 M 48.5 70.5 L 52.5 70.5 M 48.5 53.5 L 52.5 53.5 M 48.5 36.5 L 52.5 36.5" stroke-opacity="1" stroke-linejoin="bevel" stroke-miterlimit="10" stroke-dasharray=""/><text fill="rgb(68,68,68)" stroke="none" font-family="helvetica" font-size="11px" font-style="normal" font-weight="normal" text-decoration="normal" x="25.70849609375" y="416.20001220703125" text-anchor="start" dominant-baseline="alphabetic" transform="matrix(1, 0, 0, 1, 0.5, 0.5)" fill-opacity="1">0.1</text><text fill="rgb(68,68,68)" stroke="none" font-family="helvetica" font-size="11px" font-style="normal" font-weight="normal" text-decoration="normal" x="25.70849609375" y="330.6000061035156" text-anchor="start" dominant-baseline="alphabetic" transform="matrix(1, 0, 0, 1, 0.5, 0.5)" fill-opacity="1">0.2</text><text fill="rgb(68,68,68)" stroke="none" font-family="helvetica" font-size="11px" font-style="normal" font-weight="normal" text-decoration="normal" x="25.70849609375" y="245" text-anchor="start" dominant-baseline="alphabetic" transform="matrix(1, 0, 0, 1, 0.5, 0.5)" fill-opacity="1">0.3</text><text fill="rgb(68,68,68)" stroke="none" font-family="helvetica" font-size="11px" font-style="normal" font-weight="normal" text-decoration="normal" x="25.70849609375" y="159.39999389648438" text-anchor="start" dominant-baseline="alphabetic" transform="matrix(1, 0, 0, 1, 0.5, 0.5)" fill-opacity="1">0.4</text><text fill="rgb(68,68,68)" stroke="none" font-family="helvetica" font-size="11px" font-style="normal" font-weight="normal" text-decoration="normal" x="25.70849609375" y="73.80000305175781" text-anchor="start" dominant-baseline="alphabetic" transform="matrix(1, 0, 0, 1, 0.5, 0.5)" fill-opacity="1">0.5</text><text fill="rgb(68,68,68)" stroke="none" font-family="helvetica" font-size="13px" font-style="italic" font-weight="normal" text-decoration="normal" x="-53.8359375" y="238" text-anchor="start" dominant-baseline="alphabetic" transform="matrix(6.123233995736766e-17, -1, 1, 6.123233995736766e-17, -222.79150390625, 259.20849609375)" fill-opacity="1">Predicted chance of a hit</text><path fill="rgb(255,255,255)" stroke="rgb(229,229,229)" paint-order="fill" d="M 62.5 37.5 L 205.06982421875 37.5 L 205.06982421875 100.5 L 62.5 100.5 L 62.5 37.5" fill-opacity="0.9490196078431372" clip-path="url(#ufCttXTnTCFW)" stroke-opacity="0.5019607843137255" stroke-linejoin="bevel" stroke-miterlimit="10" stroke-dasharray=""/><text fill="rgb(68,68,68)" stroke="none" font-family="helvetica" font-size="13px" font-style="normal" font-weight="normal" text-decoration="normal" x="97" y="57" text-anchor="start" dominant-baseline="central" transform="matrix(1, 0, 0, 1, 0.5, 0.5)" fill-opacity="1">Population mean</text><path fill="none" stroke="rgb(255,165,0)" paint-order="fill" d="M 72.5 57.5 L 92.5 57.5" stroke-opacity="1" stroke-linejoin="bevel" stroke-miterlimit="10" stroke-width="3" stroke-dasharray="" clip-path="url(#ufCttXTnTCFW)"/><text fill="rgb(68,68,68)" stroke="none" font-family="helvetica" font-size="13px" font-style="normal" font-weight="normal" text-decoration="normal" x="97" y="80" text-anchor="start" dominant-baseline="central" transform="matrix(1, 0, 0, 1, 0.5, 0.5)" fill-opacity="1">Players</text><path fill="rgb(70,130,180)" stroke="rgb(255,255,255)" paint-order="fill" d="M 86.5 80.5 A 4 4 0 1 1 86.49999800000016 80.49600000066667" fill-opacity="1" clip-path="url(#ufCttXTnTCFW)" stroke-opacity="1" stroke-linejoin="bevel" stroke-miterlimit="10" stroke-dasharray=""/><path fill="none" stroke="none"/><text fill="rgb(68,68,68)" stroke="none" font-family="helvetica" font-size="13px" font-style="normal" font-weight="bold" text-decoration="normal" x="0" y="0" text-anchor="start" dominant-baseline="text-after-edge" transform="matrix(1, 0, 0, 1, 52.5, 22.5)" fill-opacity="1">Complete-pooling</text></svg>