<svg version="1.1" xmlns="http://www.w3.org/2000/svg" xmlns:xlink="http://www.w3.org/1999/xlink" width="500" height="500"><defs><clipPath id="uXdXrineBrTS"><path fill="none" stroke="none" d="M 52.5 27.5 L 470.5 27.5 L 470.5 455.5 L 52.5 455.5 L 52.5 27.5"/></clipPath><clipPath id="tbgaxNgiLmWX"><path fill="none" stroke="none" d="M 52.5 27.5 L 470.5 27.5 L 470.5 455.5 L 52.5 455.5 L 52.5 27.5"/></clipPath><clipPath id="ctTNJNEroNNO"><path fill="none" stroke="none" d="M 52.5 27.5 L 470.5 27.5 L 470.5 455.5 L 52.5 455.5 L 52.5 27.5"/></clipPath><clipPath id="CmvFBcRMgDak"><path fill="none" stroke="none" d="M 52.5 27.5 L 470.5 27.5 L 470.5 455.5 L 52.5 455.5 L 52.5 27.5"/></clipPath><clipPath id="vtoPVwWMdcTn"><path fill="none" stroke="none" d="M 52.5 27.5 L 470.5 27.5 L 470.5 455.5 L 52.5 455.5 L 52.5 27.5"/></clipPath><clipPath id="GyuSJyEsoWzB"><path fill="none" stroke="none" d="M 52.5 27.5 L 470.5 27.5 L 470.5 455.5 L 52.5 455.5 L 52.5 27.5"/></clipPath><clipPath id="UqLFwVSpCazs"><path fill="none" stroke="none" d="M 52.5 27.5 L 470.5 27.5 L 470.5 455.5 L 52.5 455.5 L 52.5 27.5"/></clipPath><clipPath id="MrFZPXNJlgbd"><path fill="none" stroke="none" d="M 52.5 27.5 L 470.5 27.5 L 470.5 455.5 L 52.5 455.5 L 52.5 27.5"/></clipPath><clipPath id="SshtikTyEvTV"><path fill="none" stroke="none" d="M 52.5 27.5 L 470.5 27.5 L 470.5 455.5 L 52.5 455.5 L 52.5 27.5"/></clipPath><clipPath id="fPkefJRWMJoF"><path fill="none" stroke="none" d="M 52.5 27.5 L 470.5 27.5 L 470.5 455.5 L 52.5 455.5 L 52.5 27.5 M 450.01852504414967 233.99412492909707 L 450.01852399507635 245.99412492909704 L 460.0185239950763 245.99412580332483 L 460.01852504414967 233.99412580332486 L 455.0185246070358 238.99412536621097 L 450.01852504414967 233.99412492909707 Z"/></clipPath><clipPath id="inxBocBqSVAA"><path fill="none" stroke="none" d="M 52.5 27.5 L 470.5 27.5 L 470.5 455.5 L 52.5 455.5 L 52.5 27.5"/></clipPath><clipPath id="SvDtsXcbCBmz"><path fill="none" stroke="none" d="M 52.5 27.5 L 470.5 27.5 L 470.5 455.5 L 52.5 455.5 L 52.5 27.5 M 415.6152352492278 235.91581682362832 L 415.6152342001545 247.9158168236283 L 425.6152342001544 247.91581769785608 L 425.6152352492278 235.9158176978561 L 420.6152348121139 240.91581726074222 L 415.6152352492278 235.91581682362832 Z"/></clipPath><clipPath id="ATkquxvHUSQK"><path fill="none" stroke="none" d="M 52.5 27.5 L 470.5 27.5 L 470.5 455.5 L 52.5 455.5 L 52.5 27.5"/></clipPath><clipPath id="JGeRhZVmLzBK"><path fill="none" stroke="none" d="M 52.5 27.5 L 470.5 27.5 L 470.5 455.5 L 52.5 455.5 L 52.5 27.5 M 381.2119454543059 235.84435991444863 L 381.2119444052326 247.8443599144486 L 391.21194440523254 247.8443607886764 L 391.2119454543059 235.84436078867643 L 386.211945017192 240.84436035156253 L 381.2119454543059 235.84435991444863 Z"/></clipPath><clipPath id="FggeHgfOorZx"><path fill="none" stroke="none" d="M 52.5 27.5 L 470.5 27.5 L 470.5 455.5 L 52.5 455.5 L 52.5 27.5"/></clipPath><clipPath id="ILQrMRIclJtg"><path fill="none" stroke="none" d="M 52.5 27.5 L 470.5 27.5 L 470.5 455.5 L 52.5 455.5 L 52.5 27.5 M 346.80865565938404 250.25189165272988 L 346.8086546103107 262.25189165272985 L 356.80865461031067 262.25189252695765 L 356.80865565938404 250.25189252695768 L 351.80865522227015 255.25189208984378 L 346.80865565938404 250.25189165272988 Z"/></clipPath><clipPath id="oPvrFgrpcfKi"><path fill="none" stroke="none" d="M 52.5 27.5 L 470.5 27.5 L 470.5 455.5 L 52.5 455.5 L 52.5 27.5"/></clipPath><clipPath id="IIbeyBKTKkXZ"><path fill="none" stroke="none" d="M 52.5 27.5 L 470.5 27.5 L 470.5 455.5 L 52.5 455.5 L 52.5 27.5 M 312.40536586446217 255.4126887718705 L 312.40536481538885 267.4126887718705 L 322.4053648153888 267.4126896460983 L 322.40536586446217 255.4126896460983 L 317.4053654273483 260.4126892089844 L 312.40536586446217 255.4126887718705 Z"/></clipPath><clipPath id="fzQAqAvkTTuO"><path fill="none" stroke="none" d="M 52.5 27.5 L 470.5 27.5 L 470.5 455.5 L 52.5 455.5 L 52.5 27.5"/></clipPath><clipPath id="uGkWcSBCvcZZ"><path fill="none" stroke="none" d="M 52.5 27.5 L 470.5 27.5 L 470.5 455.5 L 52.5 455.5 L 52.5 27.5 M 312.40536586446217 256.79406694569866 L 312.40536481538885 268.7940669456986 L 322.4053648153888 268.7940678199264 L 322.40536586446217 256.79406781992645 L 317.4053654273483 261.7940673828125 L 312.40536586446217 256.79406694569866 Z"/></clipPath><clipPath id="UfLiZzSJMwRl"><path fill="none" stroke="none" d="M 52.5 27.5 L 470.5 27.5 L 470.5 455.5 L 52.5 455.5 L 52.5 27.5"/></clipPath><clipPath id="CPgTwWZPaZVD"><path fill="none" stroke="none" d="M 52.5 27.5 L 470.5 27.5 L 470.5 455.5 L 52.5 455.5 L 52.5 27.5 M 288.0020446777344 274.7127990722656 L 288.0020446777344 262.7127990722656 L 278.0020446777344 262.7127990722656 L 278.0020446777344 274.7127990722656 L 283.0020446777344 269.7127990722656 L 288.0020446777344 274.7127990722656 Z"/></clipPath><clipPath id="fOlmEVggcufk"><path fill="none" stroke="none" d="M 52.5 27.5 L 470.5 27.5 L 470.5 455.5 L 52.5 455.5 L 52.5 27.5"/></clipPath><clipPath id="xzVofXtUcyQb"><path fill="none" stroke="none" d="M 52.5 27.5 L 470.5 27.5 L 470.5 455.5 L 52.5 455.5 L 52.5 27.5 M 253.59877014160156 281.5328674316406 L 253.59877014160156 269.5328674316406 L 243.59877014160156 269.5328674316406 L 243.59877014160156 281.5328674316406 L 248.59877014160156 276.5328674316406 L 253.59877014160156 281.5328674316406 Z"/></clipPath><clipPath id="CkJTsmgtNBpb"><path fill="none" stroke="none" d="M 52.5 27.5 L 470.5 27.5 L 470.5 455.5 L 52.5 455.5 L 52.5 27.5"/></clipPath><clipPath id="BCWVCFlaSsGH"><path fill="none" stroke="none" d="M 52.5 27.5 L 470.5 27.5 L 470.5 455.5 L 52.5 455.5 L 52.5 27.5 M 219.1954803466797 291.41876220703125 L 219.1954803466797 279.41876220703125 L 209.1954803466797 279.41876220703125 L 209.1954803466797 291.41876220703125 L 214.1954803466797 286.41876220703125 L 219.1954803466797 291.41876220703125 Z"/></clipPath><clipPath id="HWcQFSrFraVG"><path fill="none" stroke="none" d="M 52.5 27.5 L 470.5 27.5 L 470.5 455.5 L 52.5 455.5 L 52.5 27.5"/></clipPath><clipPath id="AiqXBkpyaqOr"><path fill="none" stroke="none" d="M 52.5 27.5 L 470.5 27.5 L 470.5 455.5 L 52.5 455.5 L 52.5 27.5 M 219.1954803466797 287.4698791503906 L 219.1954803466797 275.4698791503906 L 209.1954803466797 275.4698791503906 L 209.1954803466797 287.4698791503906 L 214.1954803466797 282.4698791503906 L 219.1954803466797 287.4698791503906 Z"/></clipPath><clipPath id="FVnQSupopnew"><path fill="none" stroke="none" d="M 52.5 27.5 L 470.5 27.5 L 470.5 455.5 L 52.5 455.5 L 52.5 27.5"/></clipPath><clipPath id="VHHNrbsfIgQg"><path fill="none" stroke="none" d="M 52.5 27.5 L 470.5 27.5 L 470.5 455.5 L 52.5 455.5 L 52.5 27.5 M 184.79217529296875 298.6207275390625 L 184.79217529296875 286.6207275390625 L 174.79217529296875 286.6207275390625 L 174.79217529296875 298.6207275390625 L 179.79217529296875 293.6207275390625 L 184.79217529296875 298.6207275390625 Z"/></clipPath><clipPath id="pJgXkeDIcwLw"><path fill="none" stroke="none" d="M 52.5 27.5 L 470.5 27.5 L 470.5 455.5 L 52.5 455.5 L 52.5 27.5"/></clipPath><clipPath id="ONzPDArkPHTU"><path fill="none" stroke="none" d="M 52.5 27.5 L 470.5 27.5 L 470.5 455.5 L 52.5 455.5 L 52.5 27.5 M 184.79217529296875 290.840576171875 L 184.79217529296875 278.840576171875 L 174.79217529296875 278.840576171875 L 174.79217529296875 290.840576171875 L 179.79217529296875 285.840576171875 L 184.79217529296875 290.840576171875 Z"/></clipPath><clipPath id="EkwJLNKnUtRD"><path fill="none" stroke="none" d="M 52.5 27.5 L 470.5 27.5 L 470.5 455.5 L 52.5 455.5 L 52.5 27.5"/></clipPath><clipPath id="xRszwgPbPnEm"><path fill="none" stroke="none" d="M 52.5 27.5 L 470.5 27.5 L 470.5 455.5 L 52.5 455.5 L 52.5 27.5 M 184.79217529296875 294.6031188964844 L 184.79217529296875 282.6031188964844 L 174.79217529296875 282.6031188964844 L 174.79217529296875 294.6031188964844 L 179.79217529296875 289.6031188964844 L 184.79217529296875 294.6031188964844 Z"/></clipPath><clipPath id="FmEnWTmAWLio"><path fill="none" stroke="none" d="M 52.5 27.5 L 470.5 27.5 L 470.5 455.5 L 52.5 455.5 L 52.5 27.5"/></clipPath><clipPath id="TcaPVuNslQaX"><path fill="none" stroke="none" d="M 52.5 27.5 L 470.5 27.5 L 470.5 455.5 L 52.5 455.5 L 52.5 27.5 M 184.79217529296875 293.0183410644531 L 184.79217529296875 281.0183410644531 L 174.79217529296875 281.0183410644531 L 174.79217529296875 293.0183410644531 L 179.79217529296875 288.0183410644531 L 184.79217529296875 293.0183410644531 Z"/></clipPath><clipPath id="WaLKEkUuuXlq"><path fill="none" stroke="none" d="M 52.5 27.5 L 470.5 27.5 L 470.5 455.5 L 52.5 455.5 L 52.5 27.5"/></clipPath><clipPath id="UKIqJyqOHhli"><path fill="none" stroke="none" d="M 52.5 27.5 L 470.5 27.5 L 470.5 455.5 L 52.5 455.5 L 52.5 27.5 M 184.79217529296875 294.2360534667969 L 184.79217529296875 282.2360534667969 L 174.79217529296875 282.2360534667969 L 174.79217529296875 294.2360534667969 L 179.79217529296875 289.2360534667969 L 184.79217529296875 294.2360534667969 Z"/></clipPath><clipPath id="NMVCdIBGtCwW"><path fill="none" stroke="none" d="M 52.5 27.5 L 470.5 27.5 L 470.5 455.5 L 52.5 455.5 L 52.5 27.5"/></clipPath><clipPath id="TJUzRhwfFnfm"><path fill="none" stroke="none" d="M 52.5 27.5 L 470.5 27.5 L 470.5 455.5 L 52.5 455.5 L 52.5 27.5 M 150.38888549804688 296.1167907714844 L 150.38888549804688 284.1167907714844 L 140.38888549804688 284.1167907714844 L 140.38888549804688 296.1167907714844 L 145.38888549804688 291.1167907714844 L 150.38888549804688 296.1167907714844 Z"/></clipPath><clipPath id="UcoaGRrTpCRS"><path fill="none" stroke="none" d="M 52.5 27.5 L 470.5 27.5 L 470.5 455.5 L 52.5 455.5 L 52.5 27.5"/></clipPath><clipPath id="nTOpxueKHrph"><path fill="none" stroke="none" d="M 52.5 27.5 L 470.5 27.5 L 470.5 455.5 L 52.5 455.5 L 52.5 27.5 M 115.985595703125 303.0120849609375 L 115.985595703125 291.0120849609375 L 105.985595703125 291.0120849609375 L 105.985595703125 303.0120849609375 L 110.985595703125 298.0120849609375 L 115.985595703125 303.0120849609375 Z"/></clipPath><clipPath id="LKkVEuTonvxV"><path fill="none" stroke="none" d="M 52.5 27.5 L 470.5 27.5 L 470.5 455.5 L 52.5 455.5 L 52.5 27.5"/></clipPath><clipPath id="HqVZxdPFBFcg"><path fill="none" stroke="none" d="M 52.5 27.5 L 470.5 27.5 L 470.5 455.5 L 52.5 455.5 L 52.5 27.5 M 81.58230590820312 316.6933898925781 L 81.58230590820312 304.6933898925781 L 71.58230590820312 304.6933898925781 L 71.58230590820312 316.6933898925781 L 76.58230590820312 311.6933898925781 L 81.58230590820312 316.6933898925781 Z"/></clipPath><clipPath id="iVAWKZGiFDSU"><path fill="none" stroke="none" d="M 52.5 27.5 L 470.5 27.5 L 470.5 455.5 L 52.5 455.5 L 52.5 27.5"/></clipPath></defs><path fill="rgb(255,255,255)" stroke="none" paint-order="stroke" d="M 0.5 0.5 L 500.5 0.5 L 500.5 500.5 L 0.5 500.5 L 0.5 0.5" fill-opacity="1"/><rect fill="#FFFFFF" stroke="none" x="52" y="27" width="418" height="428" transform="matrix(1, 0, 0, 1, 0.5, 0.5)"/><path fill="rgb(255,255,255)" stroke="none" paint-order="stroke" d="M 52.5 27.5 L 470.5 27.5 L 470.5 455.5 L 52.5 455.5 L 52.5 27.5" fill-opacity="1"/><path fill="none" stroke="rgb(229,229,229)" paint-order="fill" d="M 52.5 27.5 L 470.5 27.5 L 470.5 455.5 L 52.5 455.5 L 52.5 27.5" stroke-opacity="1" stroke-linejoin="bevel" stroke-miterlimit="10" stroke-dasharray=""/><path fill="none" stroke="none"/><path fill="none" stroke="rgb(255,165,0)" paint-order="fill" d="M -164.24073791503906 271.0901184082031 L 1383.9073486328125 271.0901184082031" stroke-opacity="1" stroke-linejoin="bevel" stroke-miterlimit="10" stroke-width="3" stroke-dasharray="" clip-path="url(#uXdXrineBrTS)"/><path fill="none" stroke="rgb(229,229,229)" paint-order="fill" d="M 67.5 455.5 L 67.5 27.5 M 145.5 455.5 L 145.5 27.5 M 222.5 455.5 L 222.5 27.5 M 300.5 455.5 L 300.5 27.5 M 377.5 455.5 L 377.5 27.5 M 455.5 455.5 L 455.5 27.5" stroke-opacity="1" stroke-linejoin="bevel" stroke-miterlimit="10" stroke-dasharray="" clip-path="url(#tbgaxNgiLmWX)"/><path fill="none" stroke="rgb(229,229,229)" paint-order="fill" d="M 52.5 412.5 L 470.5 412.5 M 52.5 327.5 L 470.5 327.5 M 52.5 241.5 L 470.5 241.5 M 52.5 155.5 L 470.5 155.5 M 52.5 70.5 L 470.5 70.5" stroke-opacity="1" stroke-linejoin="bevel" stroke-miterlimit="10" stroke-dasharray="" clip-path="url(#ctTNJNEroNNO)"/><path fill="rgb(255,165,0)" stroke="none" paint-order="stroke" d="M 455.0185241699219 330.70062255859375 L 455.0185241699219 330.70062255859375 L 420.615234375 330.70062255859375 L 386.2119445800781 330.70062255859375 L 351.80865478515625 330.70062255859375 L 317.4053649902344 330.70062255859375 L 317.4053649902344 330.70062255859375 L 283.0020446777344 330.70062255859375 L 248.59877014160156 330.70062255859375 L 214.1954803466797 330.70062255859375 L 214.1954803466797 330.70062255859375 L 179.79217529296875 330.70062255859375 L 179.79217529296875 330.70062255859375 L 179.79217529296875 330.70062255859375 L 179.79217529296875 330.70062255859375 L 179.79217529296875 330.70062255859375 L 145.38888549804688 330.70062255859375 L 110.985595703125 330.70062255859375 L 76.58230590820312 330.70062255859375 L 76.58230590820312 211.47962951660156 L 110.985595703125 211.47962951660156 L 145.38888549804688 211.47962951660156 L 179.79217529296875 211.47962951660156 L 179.79217529296875 211.47962951660156 L 179.79217529296875 211.47962951660156 L 179.79217529296875 211.47962951660156 L 179.79217529296875 211.47962951660156 L 214.1954803466797 211.47962951660156 L 214.1954803466797 211.47962951660156 L 248.59877014160156 211.47962951660156 L 283.0020446777344 211.47962951660156 L 317.4053649902344 211.47962951660156 L 317.4053649902344 211.47962951660156 L 351.80865478515625 211.47962951660156 L 386.2119445800781 211.47962951660156 L 420.615234375 211.47962951660156 L 455.0185241699219 211.47962951660156 Z" fill-opacity="0.2" clip-path="url(#CmvFBcRMgDak)"/><path fill="none" stroke="rgb(255,165,0)" paint-order="fill" d="M 455.0185241699219 330.70062255859375 L 455.0185241699219 330.70062255859375 L 420.615234375 330.70062255859375 L 386.2119445800781 330.70062255859375 L 351.80865478515625 330.70062255859375 L 317.4053649902344 330.70062255859375 L 317.4053649902344 330.70062255859375 L 283.0020446777344 330.70062255859375 L 248.59877014160156 330.70062255859375 L 214.1954803466797 330.70062255859375 L 214.1954803466797 330.70062255859375 L 179.79217529296875 330.70062255859375 L 179.79217529296875 330.70062255859375 L 179.79217529296875 330.70062255859375 L 179.79217529296875 330.70062255859375 L 179.79217529296875 330.70062255859375 L 145.38888549804688 330.70062255859375 L 110.985595703125 330.70062255859375 L 76.58230590820312 330.70062255859375" stroke-opacity="0.30196078431372547" stroke-linejoin="bevel" stroke-miterlimit="10" stroke-width="0.2" stroke-dasharray="" clip-path="url(#CmvFBcRMgDak)"/><path fill="none" stroke="rgb(255,165,0)" paint-order="fill" d="M 455.0185241699219 211.47962951660156 L 455.0185241699219 211.47962951660156 L 420.615234375 211.47962951660156 L 386.2119445800781 211.47962951660156 L 351.80865478515625 211.47962951660156 L 317.4053649902344 211.47962951660156 L 317.4053649902344 211.47962951660156 L 283.0020446777344 211.47962951660156 L 248.59877014160156 211.47962951660156 L 214.1954803466797 211.47962951660156 L 214.1954803466797 211.47962951660156 L 179.79217529296875 211.47962951660156 L 179.79217529296875 211.47962951660156 L 179.79217529296875 211.47962951660156 L 179.79217529296875 211.47962951660156 L 179.79217529296875 211.47962951660156 L 145.38888549804688 211.47962951660156 L 110.985595703125 211.47962951660156 L 76.58230590820312 211.47962951660156" stroke-opacity="0.30196078431372547" stroke-linejoin="bevel" stroke-miterlimit="10" stroke-width="0.2" stroke-dasharray="" clip-path="url(#CmvFBcRMgDak)"/><path fill="none" stroke="none"/><path fill="none" stroke="rgb(128,128,128)" paint-order="fill" d="M 455.0185241699219 155.89999389648438 L 420.615234375 174.92222595214844 L 386.2119445800781 193.94444274902344 L 351.80865478515625 212.96665954589844 L 317.4053649902344 231.9888916015625 L 317.4053649902344 231.9888916015625 L 283.0020446777344 251.0111083984375 L 248.59877014160156 270.0333251953125 L 214.1954803466797 289.0555419921875 L 214.1954803466797 289.0555419921875 L 179.79217529296875 308.0777893066406 L 179.79217529296875 308.0777893066406 L 179.79217529296875 308.0777893066406 L 179.79217529296875 308.0777893066406 L 179.79217529296875 308.0777893066406 L 145.38888549804688 327.1000061035156 L 110.985595703125 346.1222229003906 L 76.58230590820312 365.1444396972656" stroke-opacity="0.7019607843137254" stroke-linejoin="bevel" stroke-miterlimit="10" stroke-width="2" stroke-dasharray="" clip-path="url(#vtoPVwWMdcTn)"/><path fill="none" stroke="none"/><path fill="rgb(255,255,255)" stroke="rgb(70,130,180)" paint-order="fill" d="M 460.0185241699219 151.77732849121094 A 5 5 0 1 1 460.0185216699221 151.77232849204427" fill-opacity="1" clip-path="url(#GyuSJyEsoWzB)" stroke-opacity="1" stroke-linejoin="bevel" stroke-miterlimit="10" stroke-dasharray=""/><path fill="rgb(255,255,255)" stroke="rgb(70,130,180)" paint-order="fill" d="M 425.615234375 175.74534606933594 A 5 5 0 1 1 425.61523187500023 175.74034607016927" fill-opacity="1" clip-path="url(#GyuSJyEsoWzB)" stroke-opacity="1" stroke-linejoin="bevel" stroke-miterlimit="10" stroke-dasharray=""/><path fill="rgb(255,255,255)" stroke="rgb(70,130,180)" paint-order="fill" d="M 391.2119445800781 192.46006774902344 A 5 5 0 1 1 391.21194208007836 192.45506774985677" fill-opacity="1" clip-path="url(#GyuSJyEsoWzB)" stroke-opacity="1" stroke-linejoin="bevel" stroke-miterlimit="10" stroke-dasharray=""/><path fill="rgb(255,255,255)" stroke="rgb(70,130,180)" paint-order="fill" d="M 356.80865478515625 209.7808380126953 A 5 5 0 1 1 356.8086522851565 209.77583801352864" fill-opacity="1" clip-path="url(#GyuSJyEsoWzB)" stroke-opacity="1" stroke-linejoin="bevel" stroke-miterlimit="10" stroke-dasharray=""/><path fill="rgb(255,255,255)" stroke="rgb(70,130,180)" paint-order="fill" d="M 322.4053649902344 223.9687957763672 A 5 5 0 1 1 322.4053624902346 223.96379577720052" fill-opacity="1" clip-path="url(#GyuSJyEsoWzB)" stroke-opacity="1" stroke-linejoin="bevel" stroke-miterlimit="10" stroke-dasharray=""/><path fill="rgb(255,255,255)" stroke="rgb(70,130,180)" paint-order="fill" d="M 322.4053649902344 235.5854034423828 A 5 5 0 1 1 322.4053624902346 235.58040344321614" fill-opacity="1" clip-path="url(#GyuSJyEsoWzB)" stroke-opacity="1" stroke-linejoin="bevel" stroke-miterlimit="10" stroke-dasharray=""/><path fill="rgb(255,255,255)" stroke="rgb(70,130,180)" paint-order="fill" d="M 288.0020446777344 265.1826171875 A 5 5 0 1 1 288.0020421777346 265.17761718833333" fill-opacity="1" clip-path="url(#GyuSJyEsoWzB)" stroke-opacity="1" stroke-linejoin="bevel" stroke-miterlimit="10" stroke-dasharray=""/><path fill="rgb(255,255,255)" stroke="rgb(70,130,180)" paint-order="fill" d="M 253.59877014160156 274.2828674316406 A 5 5 0 1 1 253.59876764160177 274.27786743247395" fill-opacity="1" clip-path="url(#GyuSJyEsoWzB)" stroke-opacity="1" stroke-linejoin="bevel" stroke-miterlimit="10" stroke-dasharray=""/><path fill="rgb(255,255,255)" stroke="rgb(70,130,180)" paint-order="fill" d="M 219.1954803466797 288.8033752441406 A 5 5 0 1 1 219.1954778466799 288.79837524497395" fill-opacity="1" clip-path="url(#GyuSJyEsoWzB)" stroke-opacity="1" stroke-linejoin="bevel" stroke-miterlimit="10" stroke-dasharray=""/><path fill="rgb(255,255,255)" stroke="rgb(70,130,180)" paint-order="fill" d="M 219.1954803466797 285.3685302734375 A 5 5 0 1 1 219.1954778466799 285.36353027427083" fill-opacity="1" clip-path="url(#GyuSJyEsoWzB)" stroke-opacity="1" stroke-linejoin="bevel" stroke-miterlimit="10" stroke-dasharray=""/><path fill="rgb(255,255,255)" stroke="rgb(70,130,180)" paint-order="fill" d="M 184.79217529296875 307.5152893066406 A 5 5 0 1 1 184.79217279296896 307.51028930747395" fill-opacity="1" clip-path="url(#GyuSJyEsoWzB)" stroke-opacity="1" stroke-linejoin="bevel" stroke-miterlimit="10" stroke-dasharray=""/><path fill="rgb(255,255,255)" stroke="rgb(70,130,180)" paint-order="fill" d="M 184.79217529296875 310.67877197265625 A 5 5 0 1 1 184.79217279296896 310.6737719734896" fill-opacity="1" clip-path="url(#GyuSJyEsoWzB)" stroke-opacity="1" stroke-linejoin="bevel" stroke-miterlimit="10" stroke-dasharray=""/><path fill="rgb(255,255,255)" stroke="rgb(70,130,180)" paint-order="fill" d="M 184.79217529296875 304.9612731933594 A 5 5 0 1 1 184.79217279296896 304.9562731941927" fill-opacity="1" clip-path="url(#GyuSJyEsoWzB)" stroke-opacity="1" stroke-linejoin="bevel" stroke-miterlimit="10" stroke-dasharray=""/><path fill="rgb(255,255,255)" stroke="rgb(70,130,180)" paint-order="fill" d="M 184.79217529296875 309.1227111816406 A 5 5 0 1 1 184.79217279296896 309.11771118247395" fill-opacity="1" clip-path="url(#GyuSJyEsoWzB)" stroke-opacity="1" stroke-linejoin="bevel" stroke-miterlimit="10" stroke-dasharray=""/><path fill="rgb(255,255,255)" stroke="rgb(70,130,180)" paint-order="fill" d="M 184.79217529296875 305.20758056640625 A 5 5 0 1 1 184.79217279296896 305.2025805672396" fill-opacity="1" clip-path="url(#GyuSJyEsoWzB)" stroke-opacity="1" stroke-linejoin="bevel" stroke-miterlimit="10" stroke-dasharray=""/><path fill="rgb(255,255,255)" stroke="rgb(70,130,180)" paint-order="fill" d="M 150.38888549804688 315.723388671875 A 5 5 0 1 1 150.38888299804708 315.71838867270833" fill-opacity="1" clip-path="url(#GyuSJyEsoWzB)" stroke-opacity="1" stroke-linejoin="bevel" stroke-miterlimit="10" stroke-dasharray=""/><path fill="rgb(255,255,255)" stroke="rgb(70,130,180)" paint-order="fill" d="M 115.985595703125 344.579345703125 A 5 5 0 1 1 115.9855932031252 344.57434570395833" fill-opacity="1" clip-path="url(#GyuSJyEsoWzB)" stroke-opacity="1" stroke-linejoin="bevel" stroke-miterlimit="10" stroke-dasharray=""/><path fill="rgb(255,255,255)" stroke="rgb(70,130,180)" paint-order="fill" d="M 81.58230590820312 367.91473388671875 A 5 5 0 1 1 81.58230340820333 367.9097338875521" fill-opacity="1" clip-path="url(#GyuSJyEsoWzB)" stroke-opacity="1" stroke-linejoin="bevel" stroke-miterlimit="10" stroke-dasharray=""/><path fill="none" stroke="none"/><path fill="rgb(70,130,180)" stroke="rgb(255,255,255)" paint-order="fill" d="M 460.0185241699219 243.99412536621094 A 5 5 0 1 1 460.0185216699221 243.98912536704427" fill-opacity="1" clip-path="url(#UqLFwVSpCazs)" stroke-opacity="1" stroke-linejoin="bevel" stroke-miterlimit="10" stroke-dasharray=""/><path fill="rgb(70,130,180)" stroke="rgb(255,255,255)" paint-order="fill" d="M 425.615234375 245.9158172607422 A 5 5 0 1 1 425.61523187500023 245.91081726157552" fill-opacity="1" clip-path="url(#UqLFwVSpCazs)" stroke-opacity="1" stroke-linejoin="bevel" stroke-miterlimit="10" stroke-dasharray=""/><path fill="rgb(70,130,180)" stroke="rgb(255,255,255)" paint-order="fill" d="M 391.2119445800781 245.8443603515625 A 5 5 0 1 1 391.21194208007836 245.83936035239583" fill-opacity="1" clip-path="url(#UqLFwVSpCazs)" stroke-opacity="1" stroke-linejoin="bevel" stroke-miterlimit="10" stroke-dasharray=""/><path fill="rgb(70,130,180)" stroke="rgb(255,255,255)" paint-order="fill" d="M 356.80865478515625 260.25189208984375 A 5 5 0 1 1 356.8086522851565 260.2468920906771" fill-opacity="1" clip-path="url(#UqLFwVSpCazs)" stroke-opacity="1" stroke-linejoin="bevel" stroke-miterlimit="10" stroke-dasharray=""/><path fill="rgb(70,130,180)" stroke="rgb(255,255,255)" paint-order="fill" d="M 322.4053649902344 265.4126892089844 A 5 5 0 1 1 322.4053624902346 265.4076892098177" fill-opacity="1" clip-path="url(#UqLFwVSpCazs)" stroke-opacity="1" stroke-linejoin="bevel" stroke-miterlimit="10" stroke-dasharray=""/><path fill="rgb(70,130,180)" stroke="rgb(255,255,255)" paint-order="fill" d="M 322.4053649902344 266.7940673828125 A 5 5 0 1 1 322.4053624902346 266.78906738364583" fill-opacity="1" clip-path="url(#UqLFwVSpCazs)" stroke-opacity="1" stroke-linejoin="bevel" stroke-miterlimit="10" stroke-dasharray=""/><path fill="rgb(70,130,180)" stroke="rgb(255,255,255)" paint-order="fill" d="M 288.0020446777344 264.7127990722656 A 5 5 0 1 1 288.0020421777346 264.70779907309895" fill-opacity="1" clip-path="url(#UqLFwVSpCazs)" stroke-opacity="1" stroke-linejoin="bevel" stroke-miterlimit="10" stroke-dasharray=""/><path fill="rgb(70,130,180)" stroke="rgb(255,255,255)" paint-order="fill" d="M 253.59877014160156 271.5328674316406 A 5 5 0 1 1 253.59876764160177 271.52786743247395" fill-opacity="1" clip-path="url(#UqLFwVSpCazs)" stroke-opacity="1" stroke-linejoin="bevel" stroke-miterlimit="10" stroke-dasharray=""/><path fill="rgb(70,130,180)" stroke="rgb(255,255,255)" paint-order="fill" d="M 219.1954803466797 281.41876220703125 A 5 5 0 1 1 219.1954778466799 281.4137622078646" fill-opacity="1" clip-path="url(#UqLFwVSpCazs)" stroke-opacity="1" stroke-linejoin="bevel" stroke-miterlimit="10" stroke-dasharray=""/><path fill="rgb(70,130,180)" stroke="rgb(255,255,255)" paint-order="fill" d="M 219.1954803466797 277.4698791503906 A 5 5 0 1 1 219.1954778466799 277.46487915122395" fill-opacity="1" clip-path="url(#UqLFwVSpCazs)" stroke-opacity="1" stroke-linejoin="bevel" stroke-miterlimit="10" stroke-dasharray=""/><path fill="rgb(70,130,180)" stroke="rgb(255,255,255)" paint-order="fill" d="M 184.79217529296875 288.6207275390625 A 5 5 0 1 1 184.79217279296896 288.61572753989583" fill-opacity="1" clip-path="url(#UqLFwVSpCazs)" stroke-opacity="1" stroke-linejoin="bevel" stroke-miterlimit="10" stroke-dasharray=""/><path fill="rgb(70,130,180)" stroke="rgb(255,255,255)" paint-order="fill" d="M 184.79217529296875 280.840576171875 A 5 5 0 1 1 184.79217279296896 280.83557617270833" fill-opacity="1" clip-path="url(#UqLFwVSpCazs)" stroke-opacity="1" stroke-linejoin="bevel" stroke-miterlimit="10" stroke-dasharray=""/><path fill="rgb(70,130,180)" stroke="rgb(255,255,255)" paint-order="fill" d="M 184.79217529296875 284.6031188964844 A 5 5 0 1 1 184.79217279296896 284.5981188973177" fill-opacity="1" clip-path="url(#UqLFwVSpCazs)" stroke-opacity="1" stroke-linejoin="bevel" stroke-miterlimit="10" stroke-dasharray=""/><path fill="rgb(70,130,180)" stroke="rgb(255,255,255)" paint-order="fill" d="M 184.79217529296875 283.0183410644531 A 5 5 0 1 1 184.79217279296896 283.01334106528645" fill-opacity="1" clip-path="url(#UqLFwVSpCazs)" stroke-opacity="1" stroke-linejoin="bevel" stroke-miterlimit="10" stroke-dasharray=""/><path fill="rgb(70,130,180)" stroke="rgb(255,255,255)" paint-order="fill" d="M 184.79217529296875 284.2360534667969 A 5 5 0 1 1 184.79217279296896 284.2310534676302" fill-opacity="1" clip-path="url(#UqLFwVSpCazs)" stroke-opacity="1" stroke-linejoin="bevel" stroke-miterlimit="10" stroke-dasharray=""/><path fill="rgb(70,130,180)" stroke="rgb(255,255,255)" paint-order="fill" d="M 150.38888549804688 286.1167907714844 A 5 5 0 1 1 150.38888299804708 286.1117907723177" fill-opacity="1" clip-path="url(#UqLFwVSpCazs)" stroke-opacity="1" stroke-linejoin="bevel" stroke-miterlimit="10" stroke-dasharray=""/><path fill="rgb(70,130,180)" stroke="rgb(255,255,255)" paint-order="fill" d="M 115.985595703125 293.0120849609375 A 5 5 0 1 1 115.9855932031252 293.00708496177083" fill-opacity="1" clip-path="url(#UqLFwVSpCazs)" stroke-opacity="1" stroke-linejoin="bevel" stroke-miterlimit="10" stroke-dasharray=""/><path fill="rgb(70,130,180)" stroke="rgb(255,255,255)" paint-order="fill" d="M 81.58230590820312 306.6933898925781 A 5 5 0 1 1 81.58230340820333 306.68838989341145" fill-opacity="1" clip-path="url(#UqLFwVSpCazs)" stroke-opacity="1" stroke-linejoin="bevel" stroke-miterlimit="10" stroke-dasharray=""/><path fill="none" stroke="rgb(0,0,0)" paint-order="fill" d="M 52.5 455.5 L 470.5 455.5" stroke-opacity="1" stroke-linejoin="bevel" stroke-miterlimit="10" stroke-dasharray=""/><path fill="none" stroke="rgb(0,0,0)" paint-order="fill" d="M 67.5 461.5 L 67.5 453.5 M 145.5 461.5 L 145.5 453.5 M 222.5 461.5 L 222.5 453.5 M 300.5 461.5 L 300.5 453.5 M 377.5 461.5 L 377.5 453.5 M 455.5 461.5 L 455.5 453.5" stroke-opacity="1" stroke-linejoin="bevel" stroke-miterlimit="10" stroke-dasharray=""/><path fill="none" stroke="rgb(0,0,0)" paint-order="fill" d="M 52.5 459.5 L 52.5 455.5 M 67.5 459.5 L 67.5 455.5 M 83.5 459.5 L 83.5 455.5 M 98.5 459.5 L 98.5 455.5 M 114.5 459.5 L 114.5 455.5 M 129.5 459.5 L 129.5 455.5 M 145.5 459.5 L 145.5 455.5 M 160.5 459.5 L 160.5 455.5 M 176.5 459.5 L 176.5 455.5 M 191.5 459.5 L 191.5 455.5 M 207.5 459.5 L 207.5 455.5 M 222.5 459.5 L 222.5 455.5 M 238.5 459.5 L 238.5 455.5 M 253.5 459.5 L 253.5 455.5 M 269.5 459.5 L 269.5 455.5 M 284.5 459.5 L 284.5 455.5 M 300.5 459.5 L 300.5 455.5 M 315.5 459.5 L 315.5 455.5 M 331.5 459.5 L 331.5 455.5 M 346.5 459.5 L 346.5 455.5 M 362.5 459.5 L 362.5 455.5 M 377.5 459.5 L 377.5 455.5 M 393.5 459.5 L 393.5 455.5 M 408.5 459.5 L 408.5 455.5 M 424.5 459.5 L 424.5 455.5 M 439.5 459.5 L 439.5 455.5 M 455.5 459.5 L 455.5 455.5" stroke-opacity="1" stroke-linejoin="bevel" stroke-miterlimit="10" stroke-dasharray=""/><text fill="rgb(68,68,68)" stroke="none" font-family="helvetica" font-size="11px" font-style="normal" font-weight="normal" text-decoration="normal" x="56.776893615722656" y="474" text-anchor="start" dominant-baseline="alphabetic" transform="matrix(1, 0, 0, 1, 0.5, 0.5)" fill-opacity="1">0.15</text><text fill="rgb(68,68,68)" stroke="none" font-family="helvetica" font-size="11px" font-style="normal" font-weight="normal" text-decoration="normal" x="137.24313354492188" y="474" text-anchor="start" dominant-baseline="alphabetic" transform="matrix(1, 0, 0, 1, 0.5, 0.5)" fill-opacity="1">0.2</text><text fill="rgb(68,68,68)" stroke="none" font-family="helvetica" font-size="11px" font-style="normal" font-weight="normal" text-decoration="normal" x="211.59170532226562" y="474" text-anchor="start" dominant-baseline="alphabetic" transform="matrix(1, 0, 0, 1, 0.5, 0.5)" fill-opacity="1">0.25</text><text fill="rgb(68,68,68)" stroke="none" font-family="helvetica" font-size="11px" font-style="normal" font-weight="normal" text-decoration="normal" x="292.0579528808594" y="474" text-anchor="start" dominant-baseline="alphabetic" transform="matrix(1, 0, 0, 1, 0.5, 0.5)" fill-opacity="1">0.3</text><text fill="rgb(68,68,68)" stroke="none" font-family="helvetica" font-size="11px" font-style="normal" font-weight="normal" text-decoration="normal" x="366.4065246582031" y="474" text-anchor="start" dominant-baseline="alphabetic" transform="matrix(1, 0, 0, 1, 0.5, 0.5)" fill-opacity="1">0.35</text><text fill="rgb(68,68,68)" stroke="none" font-family="helvetica" font-size="11px" font-style="normal" font-weight="normal" text-decoration="normal" x="446.8727722167969" y="474" text-anchor="start" dominant-baseline="alphabetic" transform="matrix(1, 0, 0, 1, 0.5, 0.5)" fill-opacity="1">0.4</text><text fill="rgb(68,68,68)" stroke="none" font-family="helvetica" font-size="13px" font-style="italic" font-weight="normal" text-decoration="normal" x="195.609619140625" y="494" text-anchor="start" dominant-baseline="alphabetic" transform="matrix(1, 0, 0, 1, 0.5, 0.5)" fill-opacity="1">Observed hits / at-bats</text><path fill="none" stroke="rgb(0,0,0)" paint-order="fill" d="M 52.5 455.5 L 52.5 27.5" stroke-opacity="1" stroke-linejoin="bevel" stroke-miterlimit="10" stroke-dasharray=""/><path fill="none" stroke="rgb(0,0,0)" paint-order="fill" d="M 46.5 412.5 L 54.5 412.5 M 46.5 327.5 L 54.5 327.5 M 46.5 241.5 L 54.5 241.5 M 46.5 155.5 L 54.5 155.5 M 46.5 70.5 L 54.5 70.5" stroke-opacity="1" stroke-linejoin="bevel" stroke-miterlimit="10" stroke-dasharray=""/><path fill="none" stroke="rgb(0,0,0)" paint-order="fill" d="M 48.5 429.5 L 52.5 429.5 M 48.5 446.5 L 52.5 446.5 M 48.5 412.5 L 52.5 412.5 M 48.5 395.5 L 52.5 395.5 M 48.5 378.5 L 52.5 378.5 M 48.5 361.5 L 52.5 361.5 M 48.5 344.5 L 52.5 344.5 M 48.5 327.5 L 52.5 327.5 M 48.5 309.5 L 52.5 309.5 M 48.5 292.5 L 52.5 292.5 M 48.5 275.5 L 52.5 275.5 M 48.5 258.5 L 52.5 258.5 M 48.5 241.5 L 52.5 241.5 M 48.5 224.5 L 52.5 224.5 M 48.5 207.5 L 52.5 207.5 M 48.5 190.5 L 52.5 190.5 M 48.5 173.5 L 52.5 173.5 M 48.5 155.5 L 52.5 155.5 M 48.5 138.5 L 52.5 138.5 M 48.5 121.5 L 52.5 121.5 M 48.5 104.5 L 52.5 104.5 M 48.5 87.5 L 52.5 87.5 M 48.5 70.5 L 52.5 70.5 M 48.5 53.5 L 52.5 53.5 M 48.5 36.5 L 52.5 36.5" stroke-opacity="1" stroke-linejoin="bevel" stroke-miterlimit="10" stroke-dasharray=""/><text fill="rgb(68,68,68)" stroke="none" font-family="helvetica" font-size="11px" font-style="normal" font-weight="normal" text-decoration="normal" x="25.70849609375" y="416.20001220703125" text-anchor="start" dominant-baseline="alphabetic" transform="matrix(1, 0, 0, 1, 0.5, 0.5)" fill-opacity="1">0.1</text><text fill="rgb(68,68,68)" stroke="none" font-family="helvetica" font-size="11px" font-style="normal" font-weight="normal" text-decoration="normal" x="25.70849609375" y="330.6000061035156" text-anchor="start" dominant-baseline="alphabetic" transform="matrix(1, 0, 0, 1, 0.5, 0.5)" fill-opacity="1">0.2</text><text fill="rgb(68,68,68)" stroke="none" font-family="helvetica" font-size="11px" font-style="normal" font-weight="normal" text-decoration="normal" x="25.70849609375" y="245" text-anchor="start" dominant-baseline="alphabetic" transform="matrix(1, 0, 0, 1, 0.5, 0.5)" fill-opacity="1">0.3</text><text fill="rgb(68,68,68)" stroke="none" font-family="helvetica" font-size="11px" font-style="normal" font-weight="normal" text-decoration="normal" x="25.70849609375" y="159.39999389648438" text-anchor="start" dominant-baseline="alphabetic" transform="matrix(1, 0, 0, 1, 0.5, 0.5)" fill-opacity="1">0.4</text><text fill="rgb(68,68,68)" stroke="none" font-family="helvetica" font-size="11px" font-style="normal" font-weight="normal" text-decoration="normal" x="25.70849609375" y="73.80000305175781" text-anchor="start" dominant-baseline="alphabetic" transform="matrix(1, 0, 0, 1, 0.5, 0.5)" fill-opacity="1">0.5</text><text fill="rgb(68,68,68)" stroke="none" font-family="helvetica" font-size="13px" font-style="italic" font-weight="normal" text-decoration="normal" x="-53.8359375" y="238" text-anchor="start" dominant-baseline="alphabetic" transform="matrix(6.123233995736766e-17, -1, 1, 6.123233995736766e-17, -222.79150390625, 259.20849609375)" fill-opacity="1">Predicted chance of a hit</text><path fill="rgb(255,255,255)" stroke="rgb(229,229,229)" paint-order="fill" d="M 62.5 37.5 L 272.22802734375 37.5 L 272.22802734375 123.5 L 62.5 123.5 L 62.5 37.5" fill-opacity="0.9490196078431372" clip-path="url(#MrFZPXNJlgbd)" stroke-opacity="0.5019607843137255" stroke-linejoin="bevel" stroke-miterlimit="10" stroke-dasharray=""/><text fill="rgb(68,68,68)" stroke="none" font-family="helvetica" font-size="13px" font-style="normal" font-weight="normal" text-decoration="normal" x="97" y="57" text-anchor="start" dominant-baseline="central" transform="matrix(1, 0, 0, 1, 0.5, 0.5)" fill-opacity="1">Population mean</text><path fill="none" stroke="rgb(255,165,0)" paint-order="fill" d="M 72.5 57.5 L 92.5 57.5" stroke-opacity="1" stroke-linejoin="bevel" stroke-miterlimit="10" stroke-width="3" stroke-dasharray="" clip-path="url(#MrFZPXNJlgbd)"/><text fill="rgb(68,68,68)" stroke="none" font-family="helvetica" font-size="13px" font-style="normal" font-weight="normal" text-decoration="normal" x="97" y="80" text-anchor="start" dominant-baseline="central" transform="matrix(1, 0, 0, 1, 0.5, 0.5)" fill-opacity="1">Current hits / Current at-bats</text><path fill="none" stroke="rgb(128,128,128)" paint-order="fill" d="M 72.5 80.5 L 92.5 80.5" stroke-opacity="0.7019607843137254" stroke-linejoin="bevel" stroke-miterlimit="10" stroke-width="2" stroke-dasharray="" clip-path="url(#MrFZPXNJlgbd)"/><text fill="rgb(68,68,68)" stroke="none" font-family="helvetica" font-size="13px" font-style="normal" font-weight="normal" text-decoration="normal" x="97" y="103" text-anchor="start" dominant-baseline="central" transform="matrix(1, 0, 0, 1, 0.5, 0.5)" fill-opacity="1">No-pooling</text><path fill="rgb(255,255,255)" stroke="rgb(70,130,180)" paint-order="fill" d="M 86.5 103.5 A 4 4 0 1 1 86.49999800000016 103.49600000066667" fill-opacity="1" clip-path="url(#MrFZPXNJlgbd)" stroke-opacity="1" stroke-linejoin="bevel" stroke-miterlimit="10" stroke-dasharray=""/><path fill="rgb(0,0,0)" stroke="none" paint-order="stroke" d="M 450.01852504414967 233.99412492909707 L 455.0185241699219 243.99412536621094 L 460.01852504414967 233.99412580332486 L 455.0185246070358 238.99412536621097 Z" fill-opacity="1" clip-path="url(#SshtikTyEvTV)"/><path fill="none" stroke="rgb(0,0,0)" paint-order="fill" d="M 450.01852504414967 233.99412492909707 L 455.0185241699219 243.99412536621094 L 460.01852504414967 233.99412580332486 L 455.0185246070358 238.99412536621097 Z" stroke-opacity="1" stroke-linejoin="bevel" stroke-miterlimit="10" stroke-dasharray="" clip-path="url(#SshtikTyEvTV)"/><path fill="none" stroke="rgb(0,0,0)" paint-order="fill" d="M 455.0185241699219 151.77732849121094 L 455.0185241699219 243.99412536621094" stroke-opacity="1" stroke-linejoin="bevel" stroke-miterlimit="10" stroke-dasharray="" clip-path="url(#fPkefJRWMJoF)"/><path fill="rgb(0,0,0)" stroke="none" paint-order="stroke" d="M 415.6152352492278 235.91581682362832 L 420.615234375 245.9158172607422 L 425.6152352492278 235.9158176978561 L 420.6152348121139 240.91581726074222 Z" fill-opacity="1" clip-path="url(#inxBocBqSVAA)"/><path fill="none" stroke="rgb(0,0,0)" paint-order="fill" d="M 415.6152352492278 235.91581682362832 L 420.615234375 245.9158172607422 L 425.6152352492278 235.9158176978561 L 420.6152348121139 240.91581726074222 Z" stroke-opacity="1" stroke-linejoin="bevel" stroke-miterlimit="10" stroke-dasharray="" clip-path="url(#inxBocBqSVAA)"/><path fill="none" stroke="rgb(0,0,0)" paint-order="fill" d="M 420.615234375 175.74534606933594 L 420.615234375 245.9158172607422" stroke-opacity="1" stroke-linejoin="bevel" stroke-miterlimit="10" stroke-dasharray="" clip-path="url(#SvDtsXcbCBmz)"/><path fill="rgb(0,0,0)" stroke="none" paint-order="stroke" d="M 381.2119454543059 235.84435991444863 L 386.2119445800781 245.8443603515625 L 391.2119454543059 235.84436078867643 L 386.211945017192 240.84436035156253 Z" fill-opacity="1" clip-path="url(#ATkquxvHUSQK)"/><path fill="none" stroke="rgb(0,0,0)" paint-order="fill" d="M 381.2119454543059 235.84435991444863 L 386.2119445800781 245.8443603515625 L 391.2119454543059 235.84436078867643 L 386.211945017192 240.84436035156253 Z" stroke-opacity="1" stroke-linejoin="bevel" stroke-miterlimit="10" stroke-dasharray="" clip-path="url(#ATkquxvHUSQK)"/><path fill="none" stroke="rgb(0,0,0)" paint-order="fill" d="M 386.2119445800781 192.46006774902344 L 386.2119445800781 245.8443603515625" stroke-opacity="1" stroke-linejoin="bevel" stroke-miterlimit="10" stroke-dasharray="" clip-path="url(#JGeRhZVmLzBK)"/><path fill="rgb(0,0,0)" stroke="none" paint-order="stroke" d="M 346.80865565938404 250.25189165272988 L 351.80865478515625 260.25189208984375 L 356.80865565938404 250.25189252695768 L 351.80865522227015 255.25189208984378 Z" fill-opacity="1" clip-path="url(#FggeHgfOorZx)"/><path fill="none" stroke="rgb(0,0,0)" paint-order="fill" d="M 346.80865565938404 250.25189165272988 L 351.80865478515625 260.25189208984375 L 356.80865565938404 250.25189252695768 L 351.80865522227015 255.25189208984378 Z" stroke-opacity="1" stroke-linejoin="bevel" stroke-miterlimit="10" stroke-dasharray="" clip-path="url(#FggeHgfOorZx)"/><path fill="none" stroke="rgb(0,0,0)" paint-order="fill" d="M 351.80865478515625 209.7808380126953 L 351.80865478515625 260.25189208984375" stroke-opacity="1" stroke-linejoin="bevel" stroke-miterlimit="10" stroke-dasharray="" clip-path="url(#ILQrMRIclJtg)"/><path fill="rgb(0,0,0)" stroke="none" paint-order="stroke" d="M 312.40536586446217 255.4126887718705 L 317.4053649902344 265.4126892089844 L 322.40536586446217 255.4126896460983 L 317.4053654273483 260.4126892089844 Z" fill-opacity="1" clip-path="url(#oPvrFgrpcfKi)"/><path fill="none" stroke="rgb(0,0,0)" paint-order="fill" d="M 312.40536586446217 255.4126887718705 L 317.4053649902344 265.4126892089844 L 322.40536586446217 255.4126896460983 L 317.4053654273483 260.4126892089844 Z" stroke-opacity="1" stroke-linejoin="bevel" stroke-miterlimit="10" stroke-dasharray="" clip-path="url(#oPvrFgrpcfKi)"/><path fill="none" stroke="rgb(0,0,0)" paint-order="fill" d="M 317.4053649902344 223.9687957763672 L 317.4053649902344 265.4126892089844" stroke-opacity="1" stroke-linejoin="bevel" stroke-miterlimit="10" stroke-dasharray="" clip-path="url(#IIbeyBKTKkXZ)"/><path fill="rgb(0,0,0)" stroke="none" paint-order="stroke" d="M 312.40536586446217 256.79406694569866 L 317.4053649902344 266.7940673828125 L 322.40536586446217 256.79406781992645 L 317.4053654273483 261.7940673828125 Z" fill-opacity="1" clip-path="url(#fzQAqAvkTTuO)"/><path fill="none" stroke="rgb(0,0,0)" paint-order="fill" d="M 312.40536586446217 256.79406694569866 L 317.4053649902344 266.7940673828125 L 322.40536586446217 256.79406781992645 L 317.4053654273483 261.7940673828125 Z" stroke-opacity="1" stroke-linejoin="bevel" stroke-miterlimit="10" stroke-dasharray="" clip-path="url(#fzQAqAvkTTuO)"/><path fill="none" stroke="rgb(0,0,0)" paint-order="fill" d="M 317.4053649902344 235.5854034423828 L 317.4053649902344 266.7940673828125" stroke-opacity="1" stroke-linejoin="bevel" stroke-miterlimit="10" stroke-dasharray="" clip-path="url(#uGkWcSBCvcZZ)"/><path fill="rgb(0,0,0)" stroke="none" paint-order="stroke" d="M 288.0020446777344 274.7127990722656 L 283.0020446777344 264.7127990722656 L 278.0020446777344 274.7127990722656 L 283.0020446777344 269.7127990722656 Z" fill-opacity="1" clip-path="url(#UfLiZzSJMwRl)"/><path fill="none" stroke="rgb(0,0,0)" paint-order="fill" d="M 288.0020446777344 274.7127990722656 L 283.0020446777344 264.7127990722656 L 278.0020446777344 274.7127990722656 L 283.0020446777344 269.7127990722656 Z" stroke-opacity="1" stroke-linejoin="bevel" stroke-miterlimit="10" stroke-dasharray="" clip-path="url(#UfLiZzSJMwRl)"/><path fill="none" stroke="rgb(0,0,0)" paint-order="fill" d="M 283.0020446777344 265.1826171875 L 283.0020446777344 264.7127990722656" stroke-opacity="1" stroke-linejoin="bevel" stroke-miterlimit="10" stroke-dasharray="" clip-path="url(#CPgTwWZPaZVD)"/><path fill="rgb(0,0,0)" stroke="none" paint-order="stroke" d="M 253.59877014160156 281.5328674316406 L 248.59877014160156 271.5328674316406 L 243.59877014160156 281.5328674316406 L 248.59877014160156 276.5328674316406 Z" fill-opacity="1" clip-path="url(#fOlmEVggcufk)"/><path fill="none" stroke="rgb(0,0,0)" paint-order="fill" d="M 253.59877014160156 281.5328674316406 L 248.59877014160156 271.5328674316406 L 243.59877014160156 281.5328674316406 L 248.59877014160156 276.5328674316406 Z" stroke-opacity="1" stroke-linejoin="bevel" stroke-miterlimit="10" stroke-dasharray="" clip-path="url(#fOlmEVggcufk)"/><path fill="none" stroke="rgb(0,0,0)" paint-order="fill" d="M 248.59877014160156 274.2828674316406 L 248.59877014160156 271.5328674316406" stroke-opacity="1" stroke-linejoin="bevel" stroke-miterlimit="10" stroke-dasharray="" clip-path="url(#xzVofXtUcyQb)"/><path fill="rgb(0,0,0)" stroke="none" paint-order="stroke" d="M 219.1954803466797 291.41876220703125 L 214.1954803466797 281.41876220703125 L 209.1954803466797 291.41876220703125 L 214.1954803466797 286.41876220703125 Z" fill-opacity="1" clip-path="url(#CkJTsmgtNBpb)"/><path fill="none" stroke="rgb(0,0,0)" paint-order="fill" d="M 219.1954803466797 291.41876220703125 L 214.1954803466797 281.41876220703125 L 209.1954803466797 291.41876220703125 L 214.1954803466797 286.41876220703125 Z" stroke-opacity="1" stroke-linejoin="bevel" stroke-miterlimit="10" stroke-dasharray="" clip-path="url(#CkJTsmgtNBpb)"/><path fill="none" stroke="rgb(0,0,0)" paint-order="fill" d="M 214.1954803466797 288.8033752441406 L 214.1954803466797 281.41876220703125" stroke-opacity="1" stroke-linejoin="bevel" stroke-miterlimit="10" stroke-dasharray="" clip-path="url(#BCWVCFlaSsGH)"/><path fill="rgb(0,0,0)" stroke="none" paint-order="stroke" d="M 219.1954803466797 287.4698791503906 L 214.1954803466797 277.4698791503906 L 209.1954803466797 287.4698791503906 L 214.1954803466797 282.4698791503906 Z" fill-opacity="1" clip-path="url(#HWcQFSrFraVG)"/><path fill="none" stroke="rgb(0,0,0)" paint-order="fill" d="M 219.1954803466797 287.4698791503906 L 214.1954803466797 277.4698791503906 L 209.1954803466797 287.4698791503906 L 214.1954803466797 282.4698791503906 Z" stroke-opacity="1" stroke-linejoin="bevel" stroke-miterlimit="10" stroke-dasharray="" clip-path="url(#HWcQFSrFraVG)"/><path fill="none" stroke="rgb(0,0,0)" paint-order="fill" d="M 214.1954803466797 285.3685302734375 L 214.1954803466797 277.4698791503906" stroke-opacity="1" stroke-linejoin="bevel" stroke-miterlimit="10" stroke-dasharray="" clip-path="url(#AiqXBkpyaqOr)"/><path fill="rgb(0,0,0)" stroke="none" paint-order="stroke" d="M 184.79217529296875 298.6207275390625 L 179.79217529296875 288.6207275390625 L 174.79217529296875 298.6207275390625 L 179.79217529296875 293.6207275390625 Z" fill-opacity="1" clip-path="url(#FVnQSupopnew)"/><path fill="none" stroke="rgb(0,0,0)" paint-order="fill" d="M 184.79217529296875 298.6207275390625 L 179.79217529296875 288.6207275390625 L 174.79217529296875 298.6207275390625 L 179.79217529296875 293.6207275390625 Z" stroke-opacity="1" stroke-linejoin="bevel" stroke-miterlimit="10" stroke-dasharray="" clip-path="url(#FVnQSupopnew)"/><path fill="none" stroke="rgb(0,0,0)" paint-order="fill" d="M 179.79217529296875 307.5152893066406 L 179.79217529296875 288.6207275390625" stroke-opacity="1" stroke-linejoin="bevel" stroke-miterlimit="10" stroke-dasharray="" clip-path="url(#VHHNrbsfIgQg)"/><path fill="rgb(0,0,0)" stroke="none" paint-order="stroke" d="M 184.79217529296875 290.840576171875 L 179.79217529296875 280.840576171875 L 174.79217529296875 290.840576171875 L 179.79217529296875 285.840576171875 Z" fill-opacity="1" clip-path="url(#pJgXkeDIcwLw)"/><path fill="none" stroke="rgb(0,0,0)" paint-order="fill" d="M 184.79217529296875 290.840576171875 L 179.79217529296875 280.840576171875 L 174.79217529296875 290.840576171875 L 179.79217529296875 285.840576171875 Z" stroke-opacity="1" stroke-linejoin="bevel" stroke-miterlimit="10" stroke-dasharray="" clip-path="url(#pJgXkeDIcwLw)"/><path fill="none" stroke="rgb(0,0,0)" paint-order="fill" d="M 179.79217529296875 310.67877197265625 L 179.79217529296875 280.840576171875" stroke-opacity="1" stroke-linejoin="bevel" stroke-miterlimit="10" stroke-dasharray="" clip-path="url(#ONzPDArkPHTU)"/><path fill="rgb(0,0,0)" stroke="none" paint-order="stroke" d="M 184.79217529296875 294.6031188964844 L 179.79217529296875 284.6031188964844 L 174.79217529296875 294.6031188964844 L 179.79217529296875 289.6031188964844 Z" fill-opacity="1" clip-path="url(#EkwJLNKnUtRD)"/><path fill="none" stroke="rgb(0,0,0)" paint-order="fill" d="M 184.79217529296875 294.6031188964844 L 179.79217529296875 284.6031188964844 L 174.79217529296875 294.6031188964844 L 179.79217529296875 289.6031188964844 Z" stroke-opacity="1" stroke-linejoin="bevel" stroke-miterlimit="10" stroke-dasharray="" clip-path="url(#EkwJLNKnUtRD)"/><path fill="none" stroke="rgb(0,0,0)" paint-order="fill" d="M 179.79217529296875 304.9612731933594 L 179.79217529296875 284.6031188964844" stroke-opacity="1" stroke-linejoin="bevel" stroke-miterlimit="10" stroke-dasharray="" clip-path="url(#xRszwgPbPnEm)"/><path fill="rgb(0,0,0)" stroke="none" paint-order="stroke" d="M 184.79217529296875 293.0183410644531 L 179.79217529296875 283.0183410644531 L 174.79217529296875 293.0183410644531 L 179.79217529296875 288.0183410644531 Z" fill-opacity="1" clip-path="url(#FmEnWTmAWLio)"/><path fill="none" stroke="rgb(0,0,0)" paint-order="fill" d="M 184.79217529296875 293.0183410644531 L 179.79217529296875 283.0183410644531 L 174.79217529296875 293.0183410644531 L 179.79217529296875 288.0183410644531 Z" stroke-opacity="1" stroke-linejoin="bevel" stroke-miterlimit="10" stroke-dasharray="" clip-path="url(#FmEnWTmAWLio)"/><path fill="none" stroke="rgb(0,0,0)" paint-order="fill" d="M 179.79217529296875 309.1227111816406 L 179.79217529296875 283.0183410644531" stroke-opacity="1" stroke-linejoin="bevel" stroke-miterlimit="10" stroke-dasharray="" clip-path="url(#TcaPVuNslQaX)"/><path fill="rgb(0,0,0)" stroke="none" paint-order="stroke" d="M 184.79217529296875 294.2360534667969 L 179.79217529296875 284.2360534667969 L 174.79217529296875 294.2360534667969 L 179.79217529296875 289.2360534667969 Z" fill-opacity="1" clip-path="url(#WaLKEkUuuXlq)"/><path fill="none" stroke="rgb(0,0,0)" paint-order="fill" d="M 184.79217529296875 294.2360534667969 L 179.79217529296875 284.2360534667969 L 174.79217529296875 294.2360534667969 L 179.79217529296875 289.2360534667969 Z" stroke-opacity="1" stroke-linejoin="bevel" stroke-miterlimit="10" stroke-dasharray="" clip-path="url(#WaLKEkUuuXlq)"/><path fill="none" stroke="rgb(0,0,0)" paint-order="fill" d="M 179.79217529296875 305.20758056640625 L 179.79217529296875 284.2360534667969" stroke-opacity="1" stroke-linejoin="bevel" stroke-miterlimit="10" stroke-dasharray="" clip-path="url(#UKIqJyqOHhli)"/><path fill="rgb(0,0,0)" stroke="none" paint-order="stroke" d="M 150.38888549804688 296.1167907714844 L 145.38888549804688 286.1167907714844 L 140.38888549804688 296.1167907714844 L 145.38888549804688 291.1167907714844 Z" fill-opacity="1" clip-path="url(#NMVCdIBGtCwW)"/><path fill="none" stroke="rgb(0,0,0)" paint-order="fill" d="M 150.38888549804688 296.1167907714844 L 145.38888549804688 286.1167907714844 L 140.38888549804688 296.1167907714844 L 145.38888549804688 291.1167907714844 Z" stroke-opacity="1" stroke-linejoin="bevel" stroke-miterlimit="10" stroke-dasharray="" clip-path="url(#NMVCdIBGtCwW)"/><path fill="none" stroke="rgb(0,0,0)" paint-order="fill" d="M 145.38888549804688 315.723388671875 L 145.38888549804688 286.1167907714844" stroke-opacity="1" stroke-linejoin="bevel" stroke-miterlimit="10" stroke-dasharray="" clip-path="url(#TJUzRhwfFnfm)"/><path fill="rgb(0,0,0)" stroke="none" paint-order="stroke" d="M 115.985595703125 303.0120849609375 L 110.985595703125 293.0120849609375 L 105.985595703125 303.0120849609375 L 110.985595703125 298.0120849609375 Z" fill-opacity="1" clip-path="url(#UcoaGRrTpCRS)"/><path fill="none" stroke="rgb(0,0,0)" paint-order="fill" d="M 115.985595703125 303.0120849609375 L 110.985595703125 293.0120849609375 L 105.985595703125 303.0120849609375 L 110.985595703125 298.0120849609375 Z" stroke-opacity="1" stroke-linejoin="bevel" stroke-miterlimit="10" stroke-dasharray="" clip-path="url(#UcoaGRrTpCRS)"/><path fill="none" stroke="rgb(0,0,0)" paint-order="fill" d="M 110.985595703125 344.579345703125 L 110.985595703125 293.0120849609375" stroke-opacity="1" stroke-linejoin="bevel" stroke-miterlimit="10" stroke-dasharray="" clip-path="url(#nTOpxueKHrph)"/><path fill="rgb(0,0,0)" stroke="none" paint-order="stroke" d="M 81.58230590820312 316.6933898925781 L 76.58230590820312 306.6933898925781 L 71.58230590820312 316.6933898925781 L 76.58230590820312 311.6933898925781 Z" fill-opacity="1" clip-path="url(#LKkVEuTonvxV)"/><path fill="none" stroke="rgb(0,0,0)" paint-order="fill" d="M 81.58230590820312 316.6933898925781 L 76.58230590820312 306.6933898925781 L 71.58230590820312 316.6933898925781 L 76.58230590820312 311.6933898925781 Z" stroke-opacity="1" stroke-linejoin="bevel" stroke-miterlimit="10" stroke-dasharray="" clip-path="url(#LKkVEuTonvxV)"/><path fill="none" stroke="rgb(0,0,0)" paint-order="fill" d="M 76.58230590820312 367.91473388671875 L 76.58230590820312 306.6933898925781" stroke-opacity="1" stroke-linejoin="bevel" stroke-miterlimit="10" stroke-dasharray="" clip-path="url(#HqVZxdPFBFcg)"/><path fill="none" stroke="none"/><text fill="rgb(68,68,68)" stroke="none" font-family="helvetica" font-size="13px" font-style="normal" font-weight="bold" text-decoration="normal" x="0" y="0" text-anchor="start" dominant-baseline="text-after-edge" transform="matrix(1, 0, 0, 1, 52.5, 22.5)" fill-opacity="1">Partial pooling shift</text></svg>